<svg width="56" height="41" viewBox="0 0 56 41" fill="none" xmlns="http://www.w3.org/2000/svg">
<g opacity="0.70645">
<path d="M15.6782 19.097C14.4717 18.7573 13.2652 18.585 12.0916 18.585C10.2793 18.585 8.76702 18.9899 7.59444 19.4858C8.72489 15.4393 11.4405 8.45712 16.8503 7.67083C17.3513 7.59798 17.7618 7.24377 17.8985 6.76697L19.0809 2.63202C19.1805 2.28233 19.1214 1.90802 18.9175 1.60456C18.7135 1.3011 18.3856 1.09862 18.0182 1.04938C17.619 0.996125 17.212 0.968994 16.8086 0.968994C10.3152 0.968994 3.8845 7.59597 1.1709 17.0848C-0.422008 22.6516 -0.889091 31.021 3.0346 36.2889C5.23025 39.2366 8.43354 40.8107 12.5556 40.968C12.5725 40.9685 12.589 40.969 12.6059 40.969C17.6919 40.969 22.2019 37.6198 23.5739 32.8252C24.3935 29.9589 24.023 26.9529 22.5298 24.3589C21.0525 21.794 18.6194 19.9245 15.6782 19.097Z" fill="white"/>
<path d="M54.5296 24.3591C53.0523 21.7937 50.6192 19.9242 47.6779 19.0967C46.4714 18.7571 45.2649 18.5848 44.0918 18.5848C42.2794 18.5848 40.7667 18.9897 39.5941 19.4856C40.7245 15.4391 43.4402 8.45703 48.8505 7.67075C49.3515 7.5979 49.7616 7.24369 49.8988 6.7669L51.0811 2.632C51.1808 2.28231 51.1217 1.90801 50.9177 1.60455C50.7143 1.30109 50.3864 1.09862 50.0185 1.04938C49.6198 0.996125 49.2128 0.968994 48.8089 0.968994C42.3154 0.968994 35.8846 7.59589 33.1705 17.0846C31.578 22.6513 31.1109 31.0206 35.0352 36.2895C37.2304 39.2367 40.4342 40.8112 44.5558 40.968C44.5727 40.9685 44.5892 40.969 44.6067 40.969C49.6922 40.969 54.2028 37.6199 55.5747 32.8253C56.3933 29.959 56.0223 26.9525 54.5296 24.3591Z" fill="white"/>
</g>
</svg>
