<svg width="13" height="12" viewBox="0 0 13 12" fill="none" xmlns="http://www.w3.org/2000/svg">
<path fill-rule="evenodd" clip-rule="evenodd" d="M0.685059 6C0.685059 2.69146 3.37675 0 6.68506 0C9.99337 0 12.6851 2.69146 12.6851 6C12.6851 9.30854 9.99337 12 6.68506 12C3.37675 12 0.685059 9.30854 0.685059 6ZM6.33775 8.15285L10.0301 3.999C10.1994 3.80838 10.1821 3.51669 9.99152 3.34708C9.80114 3.17769 9.50898 3.19477 9.34006 3.38538L5.93875 7.21177L3.97329 5.63954C3.77437 5.48031 3.4836 5.51262 3.3246 5.71177C3.16537 5.91092 3.19767 6.20146 3.3966 6.36046L5.70429 8.20662C5.78944 8.27446 5.89121 8.30769 5.99252 8.30769C6.12014 8.30769 6.24683 8.25508 6.33775 8.15285Z" fill="#3B8D96"/>
</svg>
