<svg width="555" height="531" viewBox="0 0 555 531" fill="none" xmlns="http://www.w3.org/2000/svg">
<g id="Image">
<g id="g10">
<g id="g12">
<path id="path16" d="M84.8704 366.417L449.568 366.417C449.441 365.578 449.472 364.719 449.705 363.859C451.029 358.956 457.362 356.87 462.619 354.986C479.152 349.055 493.992 335.199 492.64 319.42C491.811 309.736 484.979 301.105 476.326 295.244C474.529 294.027 472.643 292.935 470.713 291.907C479.777 285.02 484.856 273.437 479.238 264.363L474.564 246.404C465.933 235.132 476.722 219.717 490.592 213.193C504.462 206.67 521.014 205.131 534.842 198.544C548.669 191.956 559.267 176.391 550.418 165.24C542.087 154.744 522.719 155.369 512.334 146.279C505.46 140.264 504.086 130.266 509.142 123.075C513.487 116.896 521.418 113.331 528.059 108.848C534.7 104.365 540.659 97.4356 538.441 90.4942C530.608 72.0968 465.72 84.4172 429.546 78.4318C419.457 76.7616 407.556 71.6795 408.056 62.9889C408.358 57.769 413.26 53.6229 415.237 48.6724C419.949 36.8669 406.146 24.7594 391.688 22.4201C377.229 20.0796 362.535 24.0302 347.948 25.6979C336.705 26.9834 325.246 26.9045 314.029 25.4661C310.729 25.0426 307.248 24.4161 304.855 22.4489C302.649 20.6346 301.746 17.9896 300.038 15.8257C295.547 10.1409 271.962 0.693542 248.961 0.387817C188.316 -0.419098 170.421 0.214905 106.193 13.5465C99.9113 14.8496 84.8699 20.9403 79.7555 24.2921C74.642 27.6438 71.1305 33.3373 72.8129 38.6236C76.8306 44.7594 88.9927 45.9535 97.0824 49.6197C99.5106 50.7185 102.203 52.1131 102.7 54.4048C103.469 57.9494 98.6628 60.3752 94.6266 61.5166C58.7903 71.6557 39.6734 69.2751 9.60547 88.6473C6.16359 90.8651 2.7539 93.5664 1.81717 97.1412C-0.148848 104.643 9.33209 110.544 17.8019 113.305C31.0765 117.634 37.8532 117.577 51.9202 119.691C62.1305 121.225 60.1537 120.588 65.9736 122.485C71.793 124.383 76.2798 127.293 74.843 132.431C73.2689 138.06 55.9184 142.962 49.5741 145.109C29.6202 151.86 11.7531 167.727 13.4691 185.862C14.5218 196.992 22.8228 206.934 33.3145 213.7C43.8056 220.466 56.3685 224.485 68.876 228.026C81.5796 231.623 94.4425 234.813 107.424 237.61C105.231 242.446 104.919 247.762 107.597 252.335L111.395 267.954C118.495 277.74 109.512 291.187 98.0128 296.9C86.5135 302.615 72.8154 303.997 61.3513 309.767C49.8867 315.537 41.0612 329.113 48.3413 338.795C55.1944 347.908 71.2206 347.312 79.7779 355.196C83.007 358.169 84.7466 362.274 84.8704 366.417" fill="#CCEDE0"/>
<path id="path18" d="M335.565 74.9097L393.061 74.9097C393.834 73.0277 394.265 70.9691 394.265 68.8077C394.265 59.9191 387.064 52.7145 378.182 52.7145C377.616 52.7145 377.06 52.7446 376.511 52.8009C373.066 44.1429 364.63 38.0171 354.751 38.0171C345.449 38.0171 337.435 43.4538 333.653 51.3124C331.976 50.7498 330.187 50.4328 328.321 50.4328C319.058 50.4328 311.55 57.9457 311.55 67.2127C311.55 69.9905 312.233 72.6029 313.428 74.9097H335.565" fill="white"/>
<path id="path20" d="M283.258 172.664H320.317C320.814 171.451 321.093 170.124 321.093 168.731C321.093 163.001 316.452 158.358 310.725 158.358C310.361 158.358 310.003 158.378 309.648 158.414C307.429 152.833 301.992 148.884 295.624 148.884C289.628 148.884 284.464 152.389 282.025 157.454C280.944 157.092 279.791 156.887 278.588 156.887C272.617 156.887 267.777 161.729 267.777 167.702C267.777 169.493 268.219 171.177 268.989 172.664H283.258Z" fill="white"/>
<path id="path22" d="M193.666 58.3779L254.042 58.3779C254.852 56.402 255.305 54.2406 255.305 51.9715C255.305 42.6368 247.744 35.0714 238.415 35.0714C237.823 35.0714 237.238 35.1027 236.661 35.1616C233.044 26.0713 224.187 19.6372 213.811 19.6372C204.043 19.6372 195.631 25.347 191.658 33.5991C189.897 33.009 188.018 32.6744 186.06 32.6744C176.332 32.6744 168.447 40.5644 168.447 50.2962C168.447 53.2119 169.167 55.9559 170.421 58.3779H193.666" fill="white"/>
<path id="path24" d="M89.6761 183.39H150.052C150.862 181.412 151.317 179.252 151.317 176.982C151.317 167.649 143.754 160.083 134.425 160.083C133.833 160.083 133.248 160.114 132.672 160.175C129.054 151.083 120.196 144.649 109.822 144.649C100.054 144.649 91.6397 150.359 87.6675 158.611C85.907 158.019 84.0285 157.686 82.0688 157.686C72.3423 157.686 64.457 165.576 64.457 175.308C64.457 178.224 65.1767 180.968 66.4299 183.39H89.6761Z" fill="white"/>
<path id="path26" d="M444.303 142.609H481.747C482.251 141.382 482.532 140.042 482.532 138.635C482.532 132.846 477.842 128.154 472.057 128.154C471.69 128.154 471.327 128.174 470.968 128.21C468.726 122.572 463.233 118.582 456.797 118.582C450.74 118.582 445.521 122.123 443.058 127.24C441.966 126.874 440.801 126.668 439.587 126.668C433.553 126.668 428.663 131.56 428.663 137.596C428.663 139.404 429.11 141.106 429.887 142.609H444.303" fill="white"/>
<path id="path28" d="M414.867 206.007H445.296C445.707 205.011 445.935 203.921 445.935 202.778C445.935 198.073 442.123 194.259 437.42 194.259C437.122 194.259 436.828 194.275 436.537 194.306C434.714 189.723 430.249 186.481 425.02 186.481C420.096 186.481 415.856 189.359 413.854 193.517C412.966 193.22 412.019 193.051 411.031 193.051C406.128 193.051 402.155 197.028 402.155 201.934C402.155 203.403 402.517 204.787 403.149 206.007H414.867" fill="white"/>
<path id="path30" d="M465.938 496.266C465.938 515.205 381.62 530.556 277.609 530.556C173.598 530.556 89.2798 515.205 89.2798 496.266C89.2798 477.33 173.598 461.979 277.609 461.979C381.62 461.979 465.938 477.33 465.938 496.266Z" fill="#E6F6F6"/>
<path id="path32" d="M112.939 276.844C112.939 276.844 111.369 280.674 114.113 284.302C116.855 287.93 131.201 290.818 133.055 295.057C134.634 298.663 132.324 301.381 126.012 301.07C122.352 300.891 113.94 301.328 109.096 297.224C103.124 292.16 97.3279 286.899 96.7055 285.892C95.5771 284.069 103.265 275.719 102.968 273.501C102.672 271.285 112.939 276.844 112.939 276.844Z" fill="#215E62"/>
<path id="path34" d="M113.975 274.715C113.975 274.715 112.406 278.546 115.148 282.173C117.891 285.801 129.616 290.753 132.563 294.322C134.437 296.591 133.36 299.253 127.048 298.943C123.389 298.762 114.976 299.201 110.133 295.095C104.159 290.032 98.3648 284.77 97.7411 283.763C96.6128 281.94 104.301 273.59 104.004 271.372C103.707 269.157 113.975 274.715 113.975 274.715Z" fill="#FAB10B"/>
<path id="path36" d="M172.794 274.768C172.794 274.768 171.65 278.792 176.498 279.856C181.347 280.919 194.641 283.463 199.195 285.645C203.75 287.825 204.708 292.296 197.897 293.393C191.085 294.49 165.411 294.243 163.182 293.531C160.953 292.817 161.807 283.53 164.056 277.014C164.853 274.706 172.794 274.768 172.794 274.768Z" fill="#FAB10B"/>
<path id="path38" d="M162.505 290.901C164.734 291.613 191.227 291.485 198.038 290.387C200.647 289.968 201.9 289.099 202.202 288.064C203.625 290.198 202.672 292.625 197.897 293.393C191.085 294.49 165.411 294.243 163.182 293.531C162.292 293.245 161.697 292.267 161.937 290.622C162.068 290.795 162.415 290.873 162.505 290.901Z" fill="#215E62"/>
<path id="path40" d="M171.932 133.843C171.932 133.843 180.391 190.505 180.707 199.419C181.023 208.334 174.311 278.599 174.311 278.599L163.156 279.595C163.156 279.595 159.743 217.057 160.278 203.644C159.003 199.047 151.65 165.071 145.364 157.635C139.079 150.198 134.921 142.367 135.165 135.412C135.411 128.457 171.932 133.843 171.932 133.843Z" fill="#184044"/>
<path id="path42" d="M169.655 141.435C169.655 141.435 159.523 198.414 156.104 207.234C152.685 216.055 113.858 276.914 113.858 276.914L102.966 273.323C102.966 273.323 129.063 215.857 135.155 202.999C135.874 197.997 141.658 170.844 133.829 164.291C118.771 151.688 124.954 136.561 128.083 129.88C131.213 123.201 169.655 141.435 169.655 141.435Z" fill="#215E62"/>
<path id="path44" d="M136.274 51.1571C136.274 51.1571 118.94 75.1415 108.287 97.6437C104.144 106.823 133.519 133.793 133.519 133.793L136.274 51.1571Z" fill="#3EBEC0"/>
<path id="path46" d="M149.508 39.0083C149.508 39.0083 125.065 43.514 122.74 94.9022C121.364 125.296 122.568 142.866 122.568 142.866C122.568 142.866 156.134 150.861 176.824 141.072C176.824 98.7049 173.037 43.3473 149.508 39.0083Z" fill="#42C0C8"/>
<path id="path48" d="M178.122 8.37306C178.122 8.37306 183.435 8.58105 187.288 15.3546C191.143 22.1295 192.287 28.591 190.205 38.5948C188.121 48.5998 180.83 46.4722 179.372 47.0148C183.539 45.4724 184.626 41.7222 184.758 40.2625C182.08 43.2847 180.83 44.1705 179.372 45.317C177.914 46.4635 175.831 55.3734 179.789 58.4995C176.873 57.0411 174.268 52.6632 174.893 50.1622C174.164 51.8299 174.606 54.8521 176.208 57.2491C174.06 56.2078 172.914 53.3937 172.914 53.3937C173.331 56.4158 173.122 57.4583 175.466 59.646C166.352 57.9795 160.518 52.7684 156.978 43.2847C153.437 33.8009 174.685 8.58105 178.122 8.37306Z" fill="#184044"/>
<path id="path50" d="M183.747 17.3093C183.747 17.3093 186.559 23.6406 182.81 28.1738C179.059 32.7071 179.059 35.5213 179.606 39.1161C178.825 40.2099 175.935 39.1161 175.935 39.1161C175.935 39.1161 175.583 40.8364 175.389 40.9529C175.193 41.0694 173.826 41.2662 173.201 41.2662C173.318 42.2811 173.591 42.8675 173.201 43.0241C172.81 43.1807 171.56 43.2584 171.208 43.8448C170.856 44.4312 170.258 47.714 167.602 46.8807C164.947 46.0463 157.29 37.0324 160.103 28.5911C162.915 20.1498 172.914 14.9387 174.268 14.1054C175.623 13.271 184.164 16.3458 183.747 17.3093Z" fill="#FABC9B"/>
<path id="path52" d="M164.296 42.3198C164.296 42.3198 161.404 42.3198 159.999 45.213C158.592 48.1048 164.296 58.5809 163.046 58.5809C156.581 57.6262 144.921 42.3198 144.921 42.3198C144.921 42.3198 152.812 37.1626 155.389 33.4099C157.968 29.6585 160.673 28.4081 160.673 28.4081L164.296 42.3198Z" fill="#F9AD86"/>
<path id="path54" d="M178.859 31.2211C178.642 31.2211 175.879 31.1559 175.199 28.036C175.168 27.8894 175.261 27.7441 175.409 27.7115C175.554 27.6802 175.7 27.7729 175.732 27.9195C176.338 30.6973 178.751 30.6823 178.857 30.676C178.859 30.676 178.861 30.676 178.864 30.676C179.011 30.676 179.132 30.7938 179.137 30.9417C179.14 31.092 179.022 31.2173 178.872 31.2211C178.871 31.2211 178.866 31.2211 178.859 31.2211" fill="#235758"/>
<path id="path56" d="M181.442 28.4858C181.318 28.4858 181.207 28.4006 181.177 28.2766C181.135 28.1049 180.123 24.0854 176.26 24.8447C176.111 24.8773 175.97 24.7783 175.941 24.6304C175.911 24.4826 176.008 24.3398 176.155 24.3109C180.546 23.4514 181.696 28.1037 181.708 28.15C181.741 28.2966 181.651 28.4432 181.505 28.4783C181.485 28.4833 181.463 28.4858 181.442 28.4858Z" fill="#235758"/>
<path id="path58" d="M184.424 18.4295C184.424 18.4295 183.5 10.5621 177.164 5.35095C170.831 0.139832 161.56 1.28756 153.02 11.8125C144.479 22.3375 138.542 34.6354 143.437 41.825C144.166 41.7223 148.02 38.9081 149.791 40.0533C151.562 41.201 154.887 45.8897 160.673 47.4534C157.696 45.074 156.223 41.305 156.132 41.7223C159.81 45.7406 162.364 46.3069 163.42 46.6201C161.04 44.8484 159.999 41.9303 159.999 41.9303C161.978 44.6392 163.031 44.1944 165.681 45.604C164.581 43.598 158.169 29.2514 164.135 23.5028C165.894 22.1721 164.998 24.2859 164.998 24.2859C164.998 24.2859 168.748 25.9849 171.456 22.7548C174.164 19.5246 181.06 22.7886 184.424 18.4295Z" fill="#235758"/>
<path id="path60" d="M153.02 11.8125C161.56 1.28749 170.831 0.139771 177.164 5.35089C182.056 9.37293 183.72 14.9775 184.225 17.3243C183.147 14.9286 181.42 12.1771 178.68 9.92299C172.345 4.71312 163.076 5.85834 154.535 16.3833C148.852 23.3874 147.339 32.4189 148.402 39.7989C146.5 39.9981 144.008 41.7448 143.437 41.825C138.542 34.6354 144.479 22.3375 153.02 11.8125Z" fill="#184044"/>
<path id="path62" d="M166.17 24.891C166.17 24.891 165.936 18.5597 163.28 19.6548C160.624 20.7487 159.763 25.8282 161.796 28.7201C162.733 29.5019 163.748 28.8767 164.686 27.3142C165.623 25.7518 166.17 24.891 166.17 24.891Z" fill="#FABC9B"/>
<path id="path64" d="M300.482 223.66C300.482 223.66 288.724 226.759 285.341 227.538C281.959 228.318 280.671 230.51 282.443 236.741C284.457 243.822 291.509 245.996 292.696 242.827C293.883 239.658 299.738 233.461 302.312 233.021C304.885 232.581 300.482 223.66 300.482 223.66Z" fill="#FAB48F"/>
<path id="path66" d="M348.517 201.008C348.517 201.008 364.918 161.38 372.153 159.106C379.388 156.832 384.839 165.838 381.746 175.537C378.655 185.235 359.019 219.078 354.34 220.964C349.661 222.848 303.533 234.181 299.721 234.996C297.974 230.077 297.095 223.4 297.095 223.4L348.517 201.008Z" fill="#FBC008"/>
<path id="path68" d="M389.188 243.012C389.188 243.012 345.044 204.906 326.051 213.808C313.586 219.652 330.513 248.414 350.528 277.995C359.386 279.75 389.188 243.012 389.188 243.012Z" fill="#184044"/>
<path id="path70" d="M225.31 207.413C225.31 207.413 219.964 191.217 231.096 178.964C242.227 166.711 256.658 177.038 268.097 169.636C262.445 188.493 252.674 209.408 225.31 207.413Z" fill="#58C59B"/>
<path id="path72" d="M214.919 210.266C214.919 210.266 224.774 191.742 216.309 174.818C207.845 157.893 178.757 179.042 167.326 165.676C171.678 182.956 178.211 191.877 190.306 197.597C202.4 203.317 211.355 198.993 214.919 210.266Z" fill="#69CBA4"/>
<path id="path74" d="M202.196 215.016C202.196 215.016 194.254 196.783 175.397 196.254C156.541 195.724 159.97 216.766 143.834 223.158C158.006 226.526 174.86 222.14 180.286 219.166C186.607 215.703 194.32 212.771 202.196 215.016Z" fill="#58C59B"/>
<path id="path76" d="M245.944 182.925C228.919 192.139 222.42 210.629 220.388 228.038C219.25 218.576 217.839 209.241 216.321 204.74C210.789 188.345 200.969 180.909 187.262 180.502C195.758 182.049 209.005 189.234 213.811 207.552C215.842 215.292 216.626 227.235 216.855 238.447C215.077 230.654 212.232 222.58 207.676 216.872C195.766 201.947 175.237 207.829 171.163 210.103C182.243 207.892 197.913 208.923 205.476 222.898C211.898 234.765 216.063 258.172 216.544 265.493C216.532 265.765 216.521 266.006 216.511 266.23C221.415 267.856 227.243 266.438 230.408 262.539C217.439 214.962 234.208 196.184 245.944 182.925Z" fill="#0B8C91"/>
<path id="path78" d="M276.217 141.146C276.217 141.146 273.286 118.263 291.221 104.861C309.155 91.4577 325.658 108.888 342.754 102.008C330.396 125.59 312.038 150.842 276.217 141.146Z" fill="#62C77E"/>
<path id="path80" d="M261.687 142.256C261.687 142.256 279.538 120.2 272.655 95.5463C265.772 70.8915 221.704 91.4791 209.966 70.7862C211.296 94.8534 217.677 108.383 232.264 119.093C246.85 129.804 259.855 126.369 261.687 142.256Z" fill="#83D290"/>
<path id="path82" d="M243.567 145.284C243.567 145.284 237.717 119.029 212.814 113.469C187.912 107.907 187.049 136.731 163.979 141.06C181.931 149.183 205.438 147.702 213.408 145.151C222.691 142.181 233.688 140.275 243.567 145.284Z" fill="#62C77E"/>
<path id="path84" d="M309.919 113.946C284.94 121.795 271.55 144.672 264.373 167.264C265.296 154.407 265.825 141.648 264.968 135.28C261.842 112.085 250.717 99.6823 232.621 95.6088C243.504 99.8526 259.245 112.806 260.912 138.367C261.617 149.167 259.585 165.228 257.004 180.175C256.648 169.369 254.948 157.917 250.369 149.162C238.395 126.277 209.622 128.796 203.628 130.767C218.908 130.685 239.451 136.092 245.895 156.597C251.369 174.01 249.806 239.682 248.56 249.525C248.475 249.882 248.399 250.201 248.329 250.496C254.421 253.92 262.525 253.536 267.731 249.175C262.755 182.659 273.046 130.544 309.919 113.946Z" fill="#0B8C91"/>
<path id="path86" d="M304.413 212.387C304.413 212.387 302.676 200.938 311.519 194.002C320.363 187.066 328.849 195.62 337.347 191.966C331.423 203.946 322.505 216.835 304.413 212.387Z" fill="#A8DC65"/>
<path id="path88" d="M297.135 213.115C297.135 213.115 305.835 201.837 302.092 189.546C298.35 177.253 276.474 188.101 270.341 177.853C271.291 189.915 274.651 196.631 282.097 201.836C289.542 207.04 296.029 205.164 297.135 213.115" fill="#BDE370"/>
<path id="path90" d="M288.076 214.848C288.076 214.848 284.833 201.739 272.271 199.24C259.708 196.741 259.611 211.217 248.084 213.66C257.189 217.527 268.969 216.508 272.939 215.134C277.563 213.535 283.061 212.449 288.076 214.848Z" fill="#A8DC65"/>
<path id="path92" d="M321.008 198.343C308.565 202.574 302.112 214.212 298.775 225.635C299.088 219.172 299.204 212.762 298.699 209.576C296.86 197.972 291.13 191.877 282.002 190.045C287.512 192.048 295.565 198.364 296.701 211.172C297.18 216.585 296.349 224.669 295.227 232.199C294.922 226.781 293.936 221.053 291.535 216.714C285.257 205.369 270.848 206.971 267.862 208.029C275.53 207.81 285.903 210.282 289.377 220.498C292.328 229.172 292.455 245.315 291.946 250.27C291.907 250.45 291.873 250.61 291.84 250.76C294.939 252.406 299.001 252.119 301.563 249.87C298.287 216.546 311.646 205.883 321.008 198.343Z" fill="#0B8C91"/>
<path id="path94" d="M125.838 301.455C125.838 301.455 162.329 291.362 171.354 275.766C180.379 260.169 189.011 262.005 194.112 259.712C199.213 257.418 199.213 257.418 199.213 257.418C199.213 257.418 214.909 238.151 227.857 238.611C240.806 239.068 253.606 231.729 270.356 236.775C287.107 241.821 299.075 235.17 312.022 241.362C324.971 247.554 340.863 252.372 348.514 262.005C356.166 271.638 364.418 291.565 403.735 301.455C307.314 301.455 125.838 301.455 125.838 301.455Z" fill="#BE7E1C"/>
<path id="path96" d="M125.838 301.455C125.838 301.455 162.329 293.655 171.354 281.604C180.379 269.552 189.011 270.969 194.112 269.197C199.213 267.424 199.213 267.424 199.213 267.424C199.213 267.424 214.909 252.536 227.857 252.891C240.806 253.245 253.606 247.573 270.356 251.472C287.107 255.372 299.075 250.232 312.022 255.017C324.971 259.803 340.863 263.525 348.514 270.969C356.166 278.413 364.418 293.812 403.735 301.455C307.314 301.455 125.838 301.455 125.838 301.455Z" fill="#B4701D"/>
<path id="path98" d="M425.662 268.464C425.662 268.464 438.394 265.058 440.662 263.797C443.94 270.608 445.453 289.46 445.453 291.544C445.453 293.629 441.167 293.629 436.502 293.629C431.839 293.629 424.968 293.629 424.212 293.629C423.456 293.629 425.22 288.012 430.326 286.878C437.553 285.491 432.153 278.049 431.839 276.914C431.523 275.779 428.392 276.914 428.392 276.914L425.662 268.464Z" fill="#FABC9B"/>
<path id="path100" d="M440.662 263.797C439.694 264.336 436.819 265.265 433.841 266.152C436.785 270.055 435.82 275.348 432.82 278.895C434.122 281.546 435.652 285.855 430.326 286.878C425.22 288.012 423.456 293.629 424.212 293.629C424.968 293.629 431.839 293.629 436.502 293.629C441.167 293.629 445.453 293.629 445.453 291.544C445.453 289.46 443.94 270.608 440.662 263.797Z" fill="#0B8C91"/>
<path id="path102" d="M440.662 263.797C440.278 264.011 439.584 264.288 438.711 264.599C441.303 272.685 442.512 287.916 442.512 289.778C442.512 291.863 438.225 291.863 433.56 291.863C430.71 291.863 427.038 291.863 424.44 291.863C424 292.873 423.935 293.629 424.212 293.629C424.968 293.629 431.838 293.629 436.502 293.629C441.167 293.629 445.452 293.629 445.452 291.544C445.452 289.46 443.94 270.608 440.662 263.797Z" fill="#184044"/>
<path id="path104" d="M381.301 240.676C381.301 240.676 335.868 264.218 323.766 277.671C311.665 291.124 325.84 297.816 355.392 293.629C384.945 289.443 430.683 281.202 430.683 281.202L427.637 266.572L385.282 271.133C385.282 271.133 446.125 271.954 425.284 230.585C410.493 219.15 381.301 240.676 381.301 240.676Z" fill="#215E62"/>
<path id="path106" d="M382.39 154.234C382.39 154.234 403.601 164.844 418.729 198.807C433.856 232.772 430.683 243.113 430.683 243.113C430.683 243.113 386.733 240.404 371.471 245.953C362.26 219.216 362.749 181.842 366.458 164.266C370.166 146.69 382.39 154.234 382.39 154.234Z" fill="#FAB30B"/>
<path id="path108" d="M376.818 142.668C376.818 142.668 381.203 151.173 381.301 158.853C381.336 161.609 376.357 164.871 373.603 164.975C369.827 165.118 367.419 164.489 367.419 164.489L366.268 158.789C366.268 158.789 372.649 142.281 376.818 142.668Z" fill="#F9AD86"/>
<path id="path110" d="M352.945 137.135C352.945 137.135 352.566 142.736 354.196 146.28C355.828 149.824 353.212 153.62 353.432 154.402C354.016 155.516 356.108 155.159 356.867 154.757C358.91 157.493 360.163 162.733 362.079 163.801C363.995 164.867 373.61 162.019 375.46 155.679C376.967 150.514 375.087 146.931 375.087 146.931C375.087 146.931 378.142 146.581 377.97 144.099C377.797 141.618 375.42 137.75 372.738 138.844C370.055 139.939 370.588 141.258 370.588 141.258C370.588 141.258 371.632 134.283 367.674 131.781C363.715 129.279 353.437 133.165 352.945 137.135Z" fill="#FABC9B"/>
<path id="path112" d="M370.669 140.44C370.633 140.943 370.588 141.258 370.588 141.258C370.588 141.258 370.454 140.918 370.669 140.44Z" fill="#FABC9B"/>
<path id="path114" d="M387.97 137.159C388.109 136.857 385.842 137.467 385.935 137.159C382.867 137.289 382.535 138.77 381.301 135.924C380.153 133.274 378.57 125.248 377.22 122.891C369.444 124.451 361.689 125.265 353.697 124.817V125.367L354.001 126.577L352.509 142.683C357.476 141.5 360.638 138.924 362.328 137.091C363.451 138.889 366.415 141.05 367.741 141.441C369.452 141.945 369.532 146.438 369.532 146.438L371.811 146.188L371.409 143.165C371.21 141.668 371.871 140.128 373.192 139.4C374.314 138.784 375.882 139.072 377.299 141.869C377.628 142.52 378.095 144.144 377.555 145.639C377.539 145.684 377.575 145.73 377.587 145.777C378.259 148.593 379.589 151.593 380.293 153.079C380.404 153.444 380.552 153.769 380.759 154.03C382.622 156.376 385.797 153.177 384.958 149.146C384.958 149.146 390.146 145.113 387.118 141.87C387.767 140.89 389.023 142.432 387.97 137.159Z" fill="#184044"/>
<path id="path116" d="M360.306 147.779C361.238 147.127 361.89 146.235 361.942 146.164C362.002 146.081 361.982 145.965 361.899 145.904C361.815 145.846 361.699 145.863 361.64 145.947C361.617 145.978 359.414 148.988 357.447 147.81C357.359 147.758 357.245 147.786 357.193 147.875C357.14 147.963 357.168 148.077 357.257 148.13C358.342 148.779 359.445 148.382 360.306 147.779Z" fill="#184044"/>
<path id="path118" d="M364.589 154.849C364.639 154.759 364.753 154.728 364.842 154.778C364.932 154.829 364.962 154.943 364.912 155.032C364.306 156.099 363.548 156.861 362.769 157.406C361.285 158.443 359.73 158.691 359.006 158.75L358.843 158.39C359.724 158.342 362.829 157.948 364.589 154.849Z" fill="#184044"/>
<path id="path120" d="M362.221 143.916C362.221 143.916 358.255 143.806 356.785 144.834C355.314 145.863 355.215 144.535 355.553 143.883C355.892 143.232 361.525 141.999 362.221 143.916Z" fill="#184044"/>
<path id="path122" d="M307.884 230.417C307.884 230.417 295.865 232.267 292.42 232.688C288.975 233.108 287.466 235.154 288.576 241.536C289.837 248.789 296.623 251.689 298.136 248.663C299.647 245.636 306.119 240.087 308.724 239.919C311.329 239.75 307.884 230.417 307.884 230.417Z" fill="#FABC9B"/>
<path id="path124" d="M358.843 211.079C358.843 211.079 378.391 172.905 385.786 171.223C393.181 169.542 397.887 178.959 394.022 188.377C390.156 197.794 367.852 229.939 363.037 231.439C358.221 232.94 311.329 240.507 307.463 241.011C306.119 235.966 305.782 229.24 305.782 229.24L358.843 211.079Z" fill="#FCCF06"/>
<path id="path126" d="M352.127 134.866L355.123 117.041L382.701 120.108L384.417 136.115L352.127 134.866" fill="#0B8C91"/>
<path id="path128" d="M396.273 141.257L341.556 139.505C340.032 139.457 338.825 138.169 338.874 136.642C338.923 135.118 340.209 133.908 341.734 133.957L396.449 135.709C397.974 135.758 399.182 137.046 399.133 138.572C399.085 140.098 397.798 141.306 396.273 141.257Z" fill="#184044"/>
<path id="path130" d="M230.033 159.834L250.672 160.569L254.256 162.238C254.99 162.58 255.656 161.656 255.1 161.067L248.387 153.959C247.949 153.495 247.17 153.769 247.12 154.405L246.969 156.314L234.562 152.624L230.033 159.834Z" fill="#FEE316"/>
<path id="path132" d="M255.807 172.052C255.807 172.052 259.275 174.807 257.956 182.053C256.636 189.297 250.543 191.05 249.49 187.209C248.439 183.367 252.695 181.019 254.054 178.423C255.413 175.824 256.242 173.422 255.807 172.052Z" fill="#3EBEC0"/>
<path id="path134" d="M264.387 181.381C264.387 181.381 266.183 181.821 267.137 185.064C268.092 188.306 266.237 190.243 265.099 188.874C263.96 187.504 265.033 185.689 265.011 184.351C264.99 183.011 264.814 181.859 264.387 181.381Z" fill="#3EBEC0"/>
<path id="path136" d="M255.901 158.774C255.901 158.774 256.923 157.231 260.296 157.43C263.668 157.628 264.862 160.03 263.189 160.639C261.514 161.248 260.172 159.622 258.904 159.19C257.638 158.757 256.494 158.533 255.901 158.774Z" fill="#3EBEC0"/>
<path id="path138" d="M254.554 160.297C254.554 160.297 258.968 159.952 262.934 166.156C266.901 172.361 263.63 177.798 260.244 175.7C256.859 173.604 258.38 168.984 257.606 166.156C256.833 163.328 255.805 161.005 254.554 160.297Z" fill="#3EBEC0"/>
<path id="path140" d="M241.921 142.668C244.219 139.858 243.67 135.467 240.614 132.718C237.559 129.97 233.138 129.89 230.588 132.475L241.921 142.668Z" fill="#FEE316"/>
<path id="path142" d="M215.28 166.054L210.173 161.46C206.455 158.117 206.4 152.303 210.054 148.889L227.292 132.785C228.409 131.741 230.139 131.725 231.276 132.747L241.577 142.012C242.714 143.035 242.882 144.758 241.963 145.98L227.786 164.838C224.78 168.836 218.997 169.398 215.28 166.054Z" fill="#FAB10B"/>
<path id="path144" d="M206.485 147.731C206.063 147.353 205.682 146.923 205.372 146.436C204.409 144.932 204.238 143.178 204.862 141.222C206.626 135.702 213.46 128.304 218.159 126.828C219.995 126.253 221.14 126.713 221.777 127.2C225.117 129.771 227.442 134.954 227.54 135.173L225.267 136.18C225.246 136.131 223.107 131.35 220.265 129.175C220.029 128.993 219.532 129.003 218.903 129.201C215.296 130.333 208.866 136.857 207.229 141.979C206.836 143.211 206.911 144.229 207.46 145.091C208.69 147.011 212.074 147.833 213.275 147.984L212.969 150.452C212.779 150.429 208.927 149.928 206.485 147.731Z" fill="#FAB10B"/>
<path id="path146" d="M201.267 126.728C201.267 126.728 212.638 124.946 216.957 129.257C221.322 133.617 219.313 142.936 207.407 141.608C206.421 138.657 203.268 138.754 202.309 138.577C201.349 138.4 201.267 126.728 201.267 126.728Z" fill="#FBC091"/>
<path id="path148" d="M136.603 67.6124C136.603 67.6124 143.185 53.311 153.181 57.1024C163.179 60.8952 151.279 106.196 154.022 112.742C156.765 119.288 192.186 124.634 204.261 125.874C204.897 134.579 204.27 138.21 204.103 139.102C203.935 139.993 166.626 141.572 148.615 136.275C130.605 130.978 124.325 96.0273 136.603 67.6124Z" fill="#53C6CA"/>
<path id="path150" d="M72.6909 293.477C72.6905 293.597 72.686 293.719 72.686 293.84C72.686 407.075 164.433 498.871 277.609 498.871C390.785 498.871 482.532 407.075 482.532 293.84C482.532 293.719 482.527 293.597 482.527 293.477L72.6909 293.477Z" fill="#1B395E"/>
<path id="path152" d="M136.479 293.477C136.479 293.539 136.477 293.597 136.477 293.659C136.477 350.277 199.664 396.175 277.609 396.175C355.555 396.175 418.742 350.277 418.742 293.659C418.742 293.597 418.739 293.539 418.739 293.477H136.479Z" fill="#1C4B74"/>
<path id="path154" d="M451.832 293.477C455.198 296.682 461.157 299.142 459.372 303.136C458.76 304.502 457.249 305.499 457.217 306.997C457.189 308.237 458.202 309.21 459.015 310.147C459.74 310.98 460.318 311.866 460.805 312.786C463.341 306.561 465.326 300.103 466.779 293.477H451.832Z" fill="#62C331"/>
<path id="path156" d="M408.141 385.335L407.117 389.386C407.753 393.843 405.4 398.579 401.464 400.764C400.616 401.235 399.633 401.666 399.238 402.555C398.988 403.12 399.028 403.77 398.845 404.359C398.348 405.947 396.444 406.596 394.782 406.688C393.122 406.781 391.351 406.576 389.888 407.37C387.489 408.673 387.114 411.887 385.835 414.299C383.624 418.46 378.557 420.298 375.795 424.114C374.482 425.927 373.761 428.092 372.664 430.043C371.567 431.993 369.901 433.84 367.697 434.219C375.643 436.324 384.247 433.57 390.947 428.806C397.646 424.04 402.785 417.441 407.803 410.93C409.135 409.199 410.48 407.449 411.384 405.461C413.004 401.902 413.101 397.866 413.171 393.957C413.242 390.064 413.247 385.92 411.184 382.616C409.684 382.564 408.259 383.838 408.141 385.335Z" fill="#0B8C91"/>
<path id="path158" d="M482.527 293.477H451.832C455.198 296.682 461.157 299.142 459.372 303.136C458.76 304.502 457.248 305.501 457.217 306.997C457.189 308.237 458.202 309.21 459.015 310.147C465.49 317.596 461.804 328.903 460.096 338.624C457.885 351.198 459.825 364.448 465.441 375.907C476.425 350.776 482.532 323.024 482.532 293.841C482.532 293.719 482.529 293.598 482.527 293.477Z" fill="#0B8C91"/>
<path id="path160" d="M443.839 297.904C443.348 298.141 442.913 298.495 442.572 298.978C441.083 297.217 439.689 295.375 438.381 293.477H288.083C285.947 301.099 283.81 308.721 281.675 316.343C281.549 316.793 281.424 317.247 281.312 317.708C281.202 318.168 281.107 318.631 281.042 319.093C281.01 319.326 280.985 319.557 280.971 319.788C280.956 320.019 280.951 320.249 280.958 320.48C280.971 320.94 281.03 321.397 281.152 321.847C281.601 323.512 282.819 324.804 284.218 325.865C284.452 326.042 284.69 326.214 284.931 326.379C285.171 326.542 285.413 326.701 285.656 326.855C286.33 327.284 287.016 327.692 287.711 328.083C289.105 328.862 290.54 329.565 292.011 330.188C295.685 331.743 299.571 332.798 303.53 333.299C305.081 333.496 306.704 333.641 308.242 333.977C308.709 334.08 309.17 334.195 309.616 334.339C309.998 334.464 310.371 334.609 310.733 334.774C311.454 335.106 312.127 335.531 312.727 336.085C313.016 336.351 313.281 336.643 313.538 336.944C314.309 337.849 314.996 338.839 315.984 339.485C317.549 340.509 319.478 340.45 321.368 340.084C321.483 340.06 321.599 340.039 321.714 340.014C322.302 339.89 322.882 339.742 323.445 339.589C326.363 338.793 329.319 337.982 332 336.603C332.382 336.404 332.76 336.196 333.131 335.974C333.479 335.766 333.822 335.546 334.157 335.318C335.363 334.505 336.507 333.592 337.678 332.728C338.045 332.456 338.415 332.192 338.79 331.935C339.018 331.778 339.248 331.629 339.48 331.481C339.878 331.229 340.284 330.991 340.7 330.769C340.866 330.682 341.028 330.585 341.197 330.504C342.659 329.792 344.379 329.392 346.003 329.471C346.817 329.513 347.606 329.671 348.327 329.973C349.049 330.273 349.703 330.716 350.247 331.321C349.716 334.867 348.391 338.285 346.428 341.284C345.643 342.483 344.756 343.616 343.778 344.662C343.288 345.186 342.776 345.689 342.241 346.167C341.336 346.979 340.346 347.774 339.461 348.631C338.318 349.738 337.35 350.956 336.999 352.487C336.774 353.468 336.83 354.447 337.045 355.415C337.118 355.739 337.207 356.062 337.31 356.383C337.719 357.666 338.34 358.929 338.882 360.157C338.884 360.158 338.884 360.158 338.884 360.159C339.236 360.955 339.545 361.768 339.834 362.587C339.916 362.822 339.99 363.06 340.066 363.295C340.27 363.921 340.458 364.55 340.624 365.185C340.685 365.413 340.746 365.64 340.802 365.868C341.223 367.609 341.516 369.381 341.671 371.168C341.679 371.254 341.683 371.342 341.69 371.43C341.758 372.273 341.797 373.119 341.805 373.966C341.807 374.06 341.808 374.154 341.809 374.248C341.817 377.082 341.507 379.921 340.884 382.688C339.995 386.628 338.488 390.427 336.365 393.853C333.094 396.105 329.617 398.96 329.546 402.892C329.516 404.542 330.125 406.16 330.059 407.81C329.911 411.487 326.58 414.215 325.421 417.708C324.488 420.522 324.991 423.785 323.476 426.334C322.334 428.256 320.262 429.392 318.286 430.438C314.525 432.432 310.762 434.424 307 436.418C306.223 436.829 305.419 437.262 304.896 437.968C303.816 439.422 304.342 441.635 305.661 442.877C306.98 444.117 308.864 444.563 310.671 444.677C316.219 445.027 321.557 442.75 326.649 440.517C331.362 438.451 336.075 436.385 340.787 434.319C346.221 431.938 351.655 429.556 357.087 427.174C358.485 426.563 359.919 425.925 360.983 424.833C362.63 423.141 363.233 420.522 365.182 419.194C366.934 418 369.237 418.202 371.343 417.953C375.399 417.473 379.178 415.037 381.296 411.542C382.04 410.316 382.59 408.969 383.187 407.656C383.355 407.563 383.523 407.47 383.68 407.352C385.205 406.205 385.71 404.021 387.308 402.978C388.903 401.938 391.074 402.361 392.796 401.549C395.603 400.226 395.99 396.497 396.403 393.419C397.579 384.661 401.918 376.963 407.645 370.135C408.662 368.924 409.726 367.74 410.821 366.581C410.893 366.506 410.961 366.427 411.034 366.351C411.457 365.907 411.889 365.471 412.32 365.035C412.536 364.816 412.751 364.596 412.968 364.38C413.36 363.991 413.759 363.606 414.156 363.224C414.429 362.962 414.703 362.701 414.977 362.442C415.345 362.094 415.716 361.75 416.089 361.408C416.416 361.108 416.744 360.812 417.074 360.516C417.407 360.216 417.74 359.916 418.075 359.622C418.487 359.258 418.902 358.901 419.318 358.543C419.579 358.317 419.84 358.089 420.104 357.865C420.792 357.282 421.48 356.705 422.172 356.137C422.874 355.558 423.592 354.977 424.34 354.447C425.087 353.917 425.862 353.437 426.683 353.061C427.23 352.811 427.796 352.606 428.385 352.463C428.797 352.364 429.214 352.304 429.632 352.252C431.255 352.061 432.925 352.135 434.503 351.702C438.27 350.664 440.422 347.13 441.439 343.198C441.462 343.107 441.484 343.017 441.506 342.927C441.74 341.974 441.908 341.001 442.016 340.038C442.029 339.927 442.041 339.818 442.051 339.708C442.099 339.235 442.136 338.762 442.155 338.297C442.165 338.042 442.173 337.782 442.17 337.523C442.168 337.264 442.156 337.005 442.125 336.75C442.066 336.241 441.94 335.748 441.688 335.303C440.012 332.338 435.401 334.24 433.093 336.742C432.372 337.523 431.568 338.37 430.713 339.117C430.368 339.416 430.018 339.698 429.661 339.955C429.48 340.084 429.301 340.206 429.118 340.32C427.662 341.232 426.115 341.64 424.592 340.878C423.79 340.476 423.25 339.864 422.928 339.128C422.849 338.945 422.782 338.753 422.728 338.554C422.62 338.158 422.564 337.737 422.554 337.3C422.547 337.083 422.554 336.861 422.571 336.637C422.623 335.964 422.769 335.27 422.992 334.592C423.066 334.367 423.15 334.142 423.24 333.921C423.602 333.036 424.089 332.2 424.654 331.5C425.423 330.545 426.283 329.663 427.215 328.865C427.681 328.466 428.164 328.088 428.664 327.732C431.163 325.954 434.063 324.734 437.088 324.23C438.082 324.064 439.119 323.962 440.055 323.617C440.367 323.503 440.666 323.361 440.952 323.183C441.667 322.728 442.19 322.098 442.612 321.375C443.174 320.414 443.555 319.29 443.968 318.215C444.072 317.945 444.178 317.68 444.289 317.419C445.527 314.518 447.678 312.108 449.233 309.361C449.427 309.019 449.613 308.664 449.783 308.302C450.469 306.851 450.946 305.265 451 303.711C451.039 302.546 450.841 301.398 450.314 300.338C449.173 298.043 445.973 296.877 443.839 297.904Z" fill="#0B8C91"/>
<path id="path162" d="M281.312 317.708C281.202 318.168 281.107 318.631 281.042 319.093C281.01 319.326 280.985 319.557 280.971 319.788C280.956 320.019 280.951 320.249 280.958 320.48C280.971 320.94 281.03 321.397 281.152 321.847C281.601 323.512 282.819 324.804 284.218 325.865C284.452 326.042 284.69 326.214 284.931 326.379C285.171 326.542 285.413 326.701 285.656 326.855C286.33 327.284 287.016 327.692 287.711 328.083C289.105 328.862 290.54 329.565 292.011 330.188C295.685 331.743 299.571 332.798 303.53 333.299C305.081 333.496 306.704 333.641 308.242 333.977C308.709 334.08 309.17 334.195 309.616 334.34C309.998 334.464 310.371 334.609 310.733 334.774C311.454 335.106 312.127 335.531 312.727 336.085C313.016 336.351 313.281 336.643 313.538 336.944C314.309 337.849 314.996 338.839 315.984 339.485C317.549 340.509 319.478 340.45 321.368 340.084C321.483 340.06 321.599 340.039 321.714 340.014C322.302 339.89 322.882 339.742 323.445 339.589C326.363 338.794 329.319 337.982 332 336.603C332.382 336.404 332.759 336.196 333.131 335.974C333.479 335.766 333.822 335.546 334.157 335.318C335.363 334.505 336.507 333.592 337.678 332.728C338.045 332.456 338.415 332.192 338.79 331.935C339.018 331.778 339.248 331.629 339.48 331.481C339.878 331.229 340.284 330.991 340.7 330.769C340.866 330.682 341.028 330.585 341.197 330.504C342.659 329.792 344.379 329.392 346.003 329.471C346.817 329.513 347.606 329.671 348.327 329.973C349.049 330.273 349.703 330.716 350.247 331.321C349.716 334.867 348.391 338.285 346.428 341.284C345.643 342.484 344.756 343.616 343.778 344.662C343.288 345.186 342.776 345.69 342.241 346.167C341.336 346.979 340.346 347.774 339.461 348.631C338.318 349.738 337.35 350.956 336.999 352.487C336.774 353.468 336.83 354.447 337.045 355.415C337.118 355.739 337.207 356.062 337.31 356.383C337.719 357.666 338.34 358.929 338.882 360.157C338.884 360.158 338.884 360.158 338.884 360.159C339.236 360.955 339.545 361.768 339.834 362.587C339.916 362.822 339.99 363.06 340.066 363.295C340.27 363.921 340.458 364.55 340.624 365.185C340.685 365.413 340.746 365.64 340.801 365.868C341.223 367.609 341.516 369.381 341.671 371.168C341.679 371.254 341.683 371.342 341.69 371.43C341.758 372.273 341.797 373.119 341.805 373.966C341.807 374.06 341.808 374.154 341.809 374.248C341.817 377.082 341.507 379.921 340.884 382.688C340.665 383.665 340.405 384.635 340.107 385.591C386.699 368.847 418.742 333.975 418.742 293.659C418.742 293.597 418.739 293.539 418.739 293.477H288.083C285.947 301.099 283.81 308.721 281.675 316.343C281.549 316.793 281.424 317.249 281.312 317.708Z" fill="#059DA0"/>
<path id="path164" d="M231.311 344.1C230.216 342.381 229.081 340.617 227.414 339.444C226.905 339.087 226.359 338.799 225.793 338.549C225.811 338.416 225.833 338.284 225.841 338.148C226.042 334.399 222.074 331.727 218.38 331.075C216.959 330.823 215.265 330.582 214.635 329.285C214.358 328.716 214.362 328.052 214.16 327.452C213.462 325.358 210.785 324.854 208.584 324.698C205.402 324.471 202.22 324.245 199.037 324.02C196.753 323.857 193.785 323.015 193.77 320.724C193.761 319.257 195.074 318.18 195.811 316.912C197.609 313.819 195.873 309.914 196.181 306.35C196.552 302.055 199.925 298.291 199.621 293.991C199.608 293.816 199.568 293.648 199.543 293.477H126.735C126.731 293.628 126.727 293.778 126.722 293.927C126.653 296.124 126.557 298.421 125.456 300.323C124.476 302.015 122.816 303.184 121.479 304.612C116.456 309.984 116.927 319.518 122.454 324.366C124.374 326.05 126.776 327.216 128.324 329.245C130.231 331.744 130.511 335.111 130.374 338.254C130.301 339.926 130.136 341.627 130.526 343.255C130.915 344.883 132 346.467 133.611 346.913C134.1 347.049 134.632 347.082 135.058 347.356C135.887 347.89 135.954 349.048 136.033 350.033C136.316 353.587 137.941 357.021 140.508 359.493C141.744 360.683 143.166 361.637 144.667 362.473C144.923 363.126 145.13 363.794 145.247 364.492C145.94 368.654 143.386 372.743 143.562 376.96C143.877 384.468 152.285 389.102 154.543 396.27C155.496 399.298 155.271 402.549 155.256 405.724C155.195 417.984 158.864 430.905 168.064 439.004C170.829 441.44 173.997 443.363 177.147 445.271C183.267 448.981 189.497 452.739 196.423 454.538C200.109 455.495 204.819 455.489 206.819 452.245C208.654 449.268 206.926 445.185 204.144 443.065C201.363 440.946 197.821 440.185 194.519 439.036C191.217 437.887 187.814 436.044 186.467 432.818C185.155 429.678 186.131 426.102 187.117 422.848C187.326 422.159 187.546 421.448 188.013 420.901C189.405 419.272 192.135 419.86 193.938 418.704C196.572 417.017 195.768 413.069 196.351 409.994C196.796 407.653 198.191 405.622 199.105 403.422C200.019 401.222 200.38 398.484 198.898 396.618C197.505 394.86 194.52 393.288 195.627 391.334C196.033 390.618 196.886 390.298 197.681 390.085C200.818 389.242 204.166 389.193 207.327 389.942C209.295 390.41 211.276 391.187 213.278 390.887C216.681 390.377 218.884 386.928 219.691 383.58C220.498 380.233 220.384 376.686 221.483 373.423C223.166 368.424 227.604 364.329 227.762 359.057C229.48 359.741 231.281 360.372 233.127 360.268C234.973 360.163 236.883 359.152 237.516 357.414C238.278 355.329 237.039 353.096 235.847 351.224C234.335 348.85 232.823 346.476 231.311 344.1Z" fill="#0B8C91"/>
<path id="path166" d="M218.457 386.755C219.006 385.751 219.429 384.665 219.691 383.58C220.498 380.233 220.384 376.686 221.483 373.423C223.166 368.424 227.604 364.329 227.762 359.057C229.48 359.741 231.281 360.372 233.127 360.268C234.973 360.163 236.883 359.152 237.516 357.414C238.278 355.329 237.039 353.096 235.847 351.224C234.335 348.85 232.823 346.476 231.311 344.1C230.216 342.381 229.081 340.617 227.414 339.444C226.905 339.087 226.359 338.799 225.793 338.549C225.811 338.416 225.833 338.284 225.841 338.148C226.042 334.399 222.074 331.727 218.38 331.075C216.959 330.823 215.265 330.582 214.635 329.285C214.358 328.716 214.362 328.052 214.16 327.452C213.462 325.358 210.785 324.854 208.584 324.698C205.402 324.471 202.22 324.245 199.037 324.02C196.753 323.857 193.785 323.015 193.77 320.724C193.761 319.257 195.074 318.18 195.81 316.912C197.609 313.819 195.873 309.914 196.181 306.35C196.552 302.055 199.925 298.291 199.621 293.991C199.608 293.816 199.568 293.648 199.543 293.477H136.479C136.479 293.539 136.477 293.598 136.477 293.659C136.477 334.933 170.06 370.503 218.457 386.755" fill="#059DA0"/>
<path id="path168" d="M185.932 293.477H147.094L142.084 244.595H190.941L185.932 293.477Z" fill="#FAB10B"/>
<path id="path170" d="M191.473 250.098H141.224V244.094H191.473V250.098Z" fill="#FCCF06"/>
<path id="path172" d="M169.293 246.537C168.983 246.378 168.607 246.503 168.452 246.811C168.318 247.075 154.938 273.212 145.398 279.926C142.807 281.749 140.868 282.259 139.938 281.367C138.118 279.622 139.451 272.475 144.128 264.591L143.923 262.536C138.508 271.036 136.375 279.686 139.071 282.271C139.517 282.699 140.171 283.046 141.115 283.046C142.282 283.046 143.898 282.515 146.118 280.952C155.911 274.059 169.014 248.465 169.568 247.379C169.724 247.071 169.602 246.694 169.293 246.537Z" fill="#184044"/>
<path id="path174" d="M159.89 519.598H156.438L202.022 266.464H205.473L159.89 519.598Z" fill="#42C0C8"/>
<path id="path176" d="M212.675 519.598H209.224L254.807 266.464H258.258L212.675 519.598Z" fill="#42C0C8"/>
<path id="path178" d="M250.204 301.613H197.417L198.039 298.158H250.825L250.204 301.613Z" fill="#42C0C8"/>
<path id="path180" d="M241.695 348.856H188.91L189.532 345.403H242.318L241.695 348.856Z" fill="#42C0C8"/>
<path id="path182" d="M233.188 396.101H180.403L181.024 392.646H233.81L233.188 396.101Z" fill="#42C0C8"/>
<path id="path184" d="M224.681 443.344H171.895L172.517 439.89H225.302L224.681 443.344Z" fill="#42C0C8"/>
<path id="path186" d="M216.173 490.587H163.388L164.01 487.134H216.795L216.173 490.587Z" fill="#42C0C8"/>
</g>
</g>
</g>
</svg>
