<svg width="433" height="455" viewBox="0 0 433 455" fill="none" xmlns="http://www.w3.org/2000/svg">
<g id="Image 3">
<g id="g10">
<g id="g12">
<path id="path14" d="M430.15 90.3275C427.444 89.6973 424.555 90.5534 422.267 92.2066C419.981 93.8598 418.245 96.2499 416.884 98.8026C414.254 103.744 413.557 110.229 413.704 115.898C419.631 115.322 424.466 110.107 426.763 107.299C430.392 102.86 434.403 92.5054 430.15 90.3275Z" fill="#CCEDE0"/>
<path id="path16" d="M404.33 120.203C406.675 118.068 407.594 114.461 406.929 111.263C406.262 108.065 404.155 105.317 401.517 103.607C400.297 102.816 398.805 102.217 397.455 102.718C396.193 103.187 395.364 104.554 395.172 105.955C394.98 107.355 395.33 108.78 395.832 110.091C397.552 114.591 399.997 118.61 404.33 120.203" fill="#CCEDE0"/>
<path id="path18" d="M399.706 138.391C399.672 138.375 399.797 137.974 400.052 137.258C400.35 136.436 400.715 135.429 401.146 134.242C402.045 131.699 403.3 128.148 403.815 124.05C404.324 119.954 403.725 116.171 402.748 113.685C401.791 111.172 400.666 109.916 400.758 109.848C400.78 109.827 401.072 110.121 401.523 110.726C401.977 111.326 402.552 112.272 403.086 113.534C404.177 116.043 404.853 119.931 404.33 124.12C403.804 128.304 402.476 131.872 401.488 134.387C400.985 135.647 400.549 136.653 400.238 137.343C399.926 138.032 399.738 138.406 399.706 138.391Z" fill="#E7E8E5"/>
<path id="path20" d="M426.437 97.9264C426.452 97.9391 426.364 98.0879 426.185 98.3614C425.967 98.6844 425.701 99.074 425.383 99.5437C424.623 100.629 423.608 102.079 422.374 103.841C419.829 107.466 416.331 112.484 412.539 118.083C408.748 123.684 405.382 128.805 402.959 132.521C401.78 134.323 400.808 135.808 400.081 136.917C399.763 137.388 399.5 137.779 399.283 138.102C399.095 138.369 398.989 138.505 398.974 138.493C398.958 138.484 399.036 138.327 399.195 138.04C399.39 137.701 399.627 137.293 399.913 136.799C400.544 135.727 401.48 134.19 402.655 132.304C405.001 128.53 408.322 123.369 412.117 117.763C415.912 112.158 419.461 107.172 422.082 103.606C423.393 101.823 424.466 100.39 425.223 99.4128C425.572 98.9684 425.862 98.5989 426.103 98.2938C426.309 98.0415 426.423 97.9148 426.437 97.9264Z" fill="#E7E8E5"/>
<path id="path22" d="M408.642 126.996C413.544 122.441 420.606 120.636 426.933 122.32C428.544 122.749 430.349 123.69 430.584 125.43C430.82 127.173 429.327 128.617 427.871 129.471C421.817 133.025 413.716 132.172 408.443 127.423" fill="#CCEDE0"/>
<path id="path24" d="M423.124 125.709C423.109 125.82 421.599 125.508 419.152 125.568C417.929 125.586 416.478 125.763 414.896 126.096C413.32 126.466 411.618 127.015 409.913 127.811C408.218 128.631 406.699 129.614 405.392 130.614C404.105 131.644 403.016 132.674 402.191 133.63C400.523 135.526 399.743 136.926 399.653 136.864C399.623 136.845 399.804 136.491 400.165 135.862C400.339 135.544 400.567 135.165 400.872 134.754C401.172 134.34 401.49 133.845 401.919 133.369C402.723 132.364 403.806 131.282 405.104 130.209C406.422 129.165 407.969 128.147 409.701 127.309C411.442 126.496 413.188 125.949 414.8 125.599C416.42 125.287 417.904 125.147 419.148 125.179C419.77 125.157 420.33 125.234 420.823 125.272C421.315 125.302 421.735 125.374 422.074 125.448C422.757 125.58 423.13 125.671 423.124 125.709Z" fill="#E7E8E5"/>
<path id="path26" d="M5.3207 26.2243C3.6258 28.5426 3.12111 31.6737 3.55643 34.5684C3.99175 37.462 5.29069 40.1445 6.8909 42.5367C9.98725 47.1659 15.2306 50.6053 20.1364 52.8877C22.1781 46.9716 19.7896 40.116 18.3721 36.7188C16.1308 31.3496 8.9993 23.0857 5.3207 26.2243Z" fill="#CCEDE0"/>
<path id="path28" d="M19.8082 63.6937C18.9854 60.5382 16.2963 58.1154 13.2799 57.387C10.2634 56.6575 7.01546 57.4968 4.42614 59.2893C3.22891 60.1191 2.07923 61.2909 1.92996 62.7963C1.79005 64.2046 2.60418 65.5812 3.71879 66.3635C4.83301 67.1458 6.19976 67.4202 7.53534 67.5015C12.115 67.7792 16.5949 67.1584 19.8082 63.6937Z" fill="#CCEDE0"/>
<path id="path30" d="M33.369 75.8932C33.3418 75.9185 33.0527 75.6261 32.5502 75.0772C31.9751 74.4406 31.2704 73.6604 30.4411 72.742C28.6527 70.7932 26.1549 68.0748 22.8738 65.8315C19.5924 63.5934 16.104 62.5493 13.5618 62.4216C11.0064 62.2622 9.45295 62.8006 9.43347 62.6845C9.42568 62.6549 9.80098 62.5008 10.5103 62.3277C11.2176 62.1503 12.2719 62.0046 13.5781 62.0331C16.1878 62.0616 19.7985 63.0772 23.1541 65.3691C26.5037 67.6599 28.9843 70.4554 30.7104 72.477C31.5721 73.4968 32.2455 74.3424 32.7011 74.9346C33.157 75.5279 33.3956 75.8679 33.369 75.8932Z" fill="#E7E8E5"/>
<path id="path32" d="M10.2257 33.024C10.2421 33.0155 10.3325 33.1633 10.4899 33.4515C10.6715 33.7978 10.8913 34.2179 11.1563 34.7247C11.7585 35.9144 12.564 37.5064 13.5426 39.4383C15.5505 43.4224 18.3424 48.9152 21.505 54.9347C24.67 60.9563 27.607 66.3646 29.7457 70.2717C30.7808 72.1698 31.634 73.7343 32.2712 74.903C32.5374 75.4076 32.7587 75.8267 32.9414 76.1729C33.0896 76.4675 33.1601 76.6258 33.1449 76.6364C33.1293 76.6459 33.0291 76.5055 32.8518 76.231C32.646 75.8995 32.3978 75.4973 32.0981 75.0138C31.452 73.9507 30.5392 72.3989 29.4293 70.4701C27.209 66.6116 24.2187 61.2287 21.0507 55.2018C17.8853 49.177 15.1424 43.6505 13.2164 39.6178C12.253 37.6014 11.488 35.963 10.9759 34.8207C10.7456 34.2961 10.5546 33.8611 10.3964 33.5011C10.2693 33.1971 10.2097 33.0324 10.2257 33.024Z" fill="#E7E8E5"/>
<path id="path34" d="M27.454 62.4734C25.6582 55.8373 27.1349 48.3092 31.278 42.978C32.3335 41.6204 33.9087 40.2955 35.496 40.8149C37.0861 41.3343 37.6812 43.3792 37.7887 45.1369C38.2366 52.4486 34.0451 59.831 27.7351 62.846" fill="#CCEDE0"/>
<path id="path36" d="M32.5449 48.0707C32.6336 48.1329 31.7218 49.4431 30.7268 51.8099C30.2193 52.988 29.7501 54.4512 29.3588 56.1065C29.0015 57.7713 28.7427 59.6346 28.694 61.6056C28.6702 63.5776 28.86 65.4504 29.1558 67.1289C29.4855 68.8001 29.9006 70.2823 30.3643 71.4794C31.2708 73.8864 32.1337 75.2324 32.0432 75.2915C32.0129 75.3115 31.7884 74.9853 31.4057 74.373C31.208 74.069 30.9813 73.69 30.7615 73.2223C30.5366 72.7578 30.249 72.2427 30.0249 71.6283C29.5101 70.4301 29.049 68.932 28.6866 67.2313C28.3584 65.5243 28.1499 63.6103 28.1749 61.595C28.224 59.5808 28.503 57.6784 28.8943 55.9851C29.3191 54.3013 29.8343 52.8234 30.3931 51.6473C30.6395 51.0424 30.9454 50.5389 31.1878 50.0849C31.4243 49.6267 31.6656 49.2573 31.8737 48.9617C32.2795 48.3652 32.5156 48.0485 32.5449 48.0707Z" fill="#E7E8E5"/>
<path id="path38" d="M116.489 453.346C119.077 454.391 122.055 453.996 124.549 452.717C127.041 451.438 129.091 449.347 130.792 447.033C134.082 442.557 135.676 436.252 136.32 430.622C130.378 430.267 124.868 434.671 122.206 437.089C117.998 440.914 112.586 450.528 116.489 453.346Z" fill="#CCEDE0"/>
<path id="path40" d="M146.192 427.826C143.575 429.573 142.163 432.999 142.376 436.264C142.59 439.53 144.289 442.577 146.66 444.681C147.757 445.653 149.15 446.479 150.554 446.195C151.868 445.927 152.879 444.704 153.264 443.35C153.649 441.994 153.502 440.53 153.188 439.154C152.114 434.435 150.255 430.079 146.192 427.826Z" fill="#CCEDE0"/>
<path id="path42" d="M153.302 410.561C153.333 410.58 153.151 410.959 152.8 411.625C152.391 412.392 151.889 413.332 151.299 414.438C150.054 416.813 148.318 420.13 147.238 424.102C146.163 428.074 146.228 431.909 146.849 434.521C147.444 437.156 148.38 438.573 148.281 438.626C148.257 438.643 148.008 438.308 147.646 437.639C147.282 436.973 146.845 435.948 146.493 434.618C145.763 431.966 145.637 428.015 146.738 423.952C147.842 419.896 149.652 416.575 150.981 414.242C151.654 413.074 152.224 412.148 152.629 411.514C153.033 410.88 153.272 410.541 153.302 410.561Z" fill="#E7E8E5"/>
<path id="path44" d="M121.221 446.41C121.208 446.395 121.316 446.261 121.532 446.018C121.792 445.733 122.108 445.389 122.489 444.974C123.391 444.021 124.598 442.743 126.064 441.194C129.086 438.007 133.246 433.589 137.777 428.644C142.307 423.695 146.35 419.154 149.264 415.857C150.683 414.26 151.851 412.943 152.724 411.959C153.103 411.543 153.419 411.197 153.679 410.912C153.902 410.677 154.025 410.56 154.038 410.571C154.052 410.585 153.954 410.728 153.757 410.986C153.517 411.291 153.225 411.659 152.874 412.102C152.1 413.064 150.96 414.437 149.536 416.12C146.688 419.487 142.685 424.072 138.15 429.026C133.616 433.976 129.41 438.354 126.32 441.472C124.776 443.031 123.514 444.281 122.63 445.129C122.222 445.515 121.883 445.835 121.603 446.099C121.365 446.316 121.233 446.423 121.221 446.41Z" fill="#E7E8E5"/>
<path id="path46" d="M142.874 420.436C137.391 424.175 130.155 424.859 124.132 422.206C122.598 421.529 120.944 420.317 120.954 418.56C120.964 416.799 122.641 415.604 124.199 414.986C130.683 412.416 138.576 414.525 143.131 420.043" fill="#CCEDE0"/>
<path id="path48" d="M128.372 419.449C128.403 419.341 129.851 419.886 132.281 420.207C133.493 420.38 134.952 420.433 136.564 420.349C138.173 420.229 139.933 419.953 141.731 419.431C143.522 418.884 145.161 418.15 146.593 417.365C148.01 416.548 149.229 415.698 150.179 414.881C152.093 413.265 153.061 412.003 153.14 412.078C153.168 412.102 152.938 412.424 152.495 412.989C152.278 413.277 152 413.617 151.64 413.975C151.286 414.337 150.903 414.777 150.412 415.182C149.477 416.051 148.255 416.95 146.821 417.81C145.372 418.637 143.701 419.403 141.87 419.961C140.036 420.493 138.232 420.761 136.589 420.856C134.942 420.912 133.456 420.818 132.23 420.593C131.611 420.518 131.067 420.353 130.587 420.24C130.104 420.133 129.7 419.995 129.372 419.87C128.716 419.631 128.36 419.485 128.372 419.449Z" fill="#E7E8E5"/>
<path id="path50" d="M328.731 315.825C328.739 321.652 324.28 326.382 318.773 326.39C313.267 326.398 308.796 321.681 308.789 315.855C308.782 310.027 313.24 305.298 318.746 305.289C324.253 305.281 328.723 309.999 328.731 315.825Z" fill="#CCEDE0"/>
<path id="path52" d="M356.639 294.684C356.646 300.511 352.19 305.241 346.682 305.249C341.175 305.257 336.706 300.54 336.698 294.712C336.69 288.886 341.148 284.156 346.655 284.148C352.161 284.14 356.632 288.856 356.639 294.684Z" fill="#CCEDE0"/>
<path id="path54" d="M356.697 339.404C356.706 345.743 352.248 350.889 346.742 350.897C341.235 350.905 336.764 345.773 336.756 339.433C336.747 333.093 341.205 327.947 346.711 327.939C352.219 327.93 356.689 333.063 356.697 339.404Z" fill="#CCEDE0"/>
<path id="path56" d="M343.784 338.065C343.358 338.729 336.726 334.743 328.972 329.166C321.216 323.585 315.276 318.526 315.702 317.862C316.129 317.199 322.759 321.184 330.516 326.764C338.269 332.341 344.21 337.402 343.784 338.065Z" fill="#CCEDE0"/>
<path id="path58" d="M344.58 293.96C345.044 294.594 339.924 299.615 333.145 305.173C326.363 310.732 320.491 314.723 320.026 314.089C319.562 313.455 324.681 308.435 331.463 302.876C338.243 297.318 344.116 293.326 344.58 293.96Z" fill="#CCEDE0"/>
<path id="path60" d="M289.192 192.862C289.335 192.862 289.452 195.699 289.452 199.196C289.452 202.695 289.335 205.53 289.192 205.53C289.048 205.53 288.932 202.695 288.932 199.196C288.932 195.699 289.048 192.862 289.192 192.862Z" fill="#DADBD8"/>
<path id="path62" d="M289.192 167.526C289.335 167.526 289.452 170.362 289.452 173.86C289.452 177.358 289.335 180.194 289.192 180.194C289.048 180.194 288.932 177.358 288.932 173.86C288.932 170.362 289.048 167.526 289.192 167.526Z" fill="#DADBD8"/>
<path id="path64" d="M289.192 142.189C289.335 142.189 289.452 145.026 289.452 148.523C289.452 152.022 289.335 154.857 289.192 154.857C289.048 154.857 288.932 152.022 288.932 148.523C288.932 145.026 289.048 142.189 289.192 142.189Z" fill="#DADBD8"/>
<path id="path66" d="M289.192 116.853C289.335 116.853 289.452 119.689 289.452 123.187C289.452 126.685 289.335 129.521 289.192 129.521C289.048 129.521 288.932 126.685 288.932 123.187C288.932 119.689 289.048 116.853 289.192 116.853Z" fill="#DADBD8"/>
<path id="path68" d="M289.192 91.5162C289.335 91.5162 289.452 94.3529 289.452 97.8503C289.452 101.349 289.335 104.184 289.192 104.184C289.048 104.184 288.932 101.349 288.932 97.8503C288.932 94.3529 289.048 91.5162 289.192 91.5162Z" fill="#DADBD8"/>
<path id="path70" d="M282.377 73.3901C282.377 73.2392 285.057 73.1157 288.363 73.1157C288.647 73.1167 288.924 73.1178 289.191 73.1178L289.451 73.1188L289.449 73.3912C289.431 76.4791 289.323 78.848 289.191 78.848C289.061 78.848 288.952 76.4791 288.934 73.3912L289.191 73.6625C288.924 73.6636 288.647 73.6646 288.363 73.6657C285.057 73.6657 282.377 73.5422 282.377 73.3901Z" fill="#DADBD8"/>
<path id="path72" d="M258.433 73.3902C258.433 73.2392 261.112 73.1157 264.419 73.1157C267.725 73.1157 270.405 73.2392 270.405 73.3902C270.405 73.5422 267.725 73.6657 264.419 73.6657C261.112 73.6657 258.433 73.5422 258.433 73.3902Z" fill="#DADBD8"/>
<path id="path74" d="M248.022 59.0698C248.166 59.0698 248.282 61.9064 248.282 65.4039C248.282 68.9025 248.166 71.738 248.022 71.738C247.879 71.738 247.762 68.9025 247.762 65.4039C247.762 61.9064 247.879 59.0698 248.022 59.0698Z" fill="#DADBD8"/>
<path id="path76" d="M248.022 38.7373C248.166 38.7373 248.282 40.4528 248.282 42.5684C248.282 44.6861 248.166 46.4016 248.022 46.4016C247.879 46.4016 247.762 44.6861 247.762 42.5684C247.762 40.4528 247.879 38.7373 248.022 38.7373Z" fill="#DADBD8"/>
<path id="path78" d="M103.615 326.112C103.615 325.959 104.954 325.837 106.607 325.837C108.259 325.837 109.599 325.959 109.599 326.112C109.599 326.264 108.259 326.386 106.607 326.386C104.954 326.386 103.615 326.264 103.615 326.112" fill="#DADBD8"/>
<path id="path80" d="M77.5054 326.112C77.5054 325.959 80.4279 325.837 84.0313 325.837C87.6362 325.837 90.5584 325.959 90.5584 326.112C90.5584 326.264 87.6362 326.386 84.0313 326.386C80.4279 326.386 77.5054 326.264 77.5054 326.112Z" fill="#DADBD8"/>
<path id="path82" d="M51.3972 326.112C51.3972 325.959 54.3198 325.837 57.9235 325.837C61.5285 325.837 64.4502 325.959 64.4502 326.112C64.4502 326.264 61.5285 326.386 57.9235 326.386C54.3198 326.386 51.3972 326.264 51.3972 326.112" fill="#DADBD8"/>
<path id="path84" d="M32.3662 319.777C32.5096 319.777 32.6257 322.613 32.6257 326.11C32.6823 326.172 32.1339 325.591 32.3673 325.837H32.3701H32.3748H32.3841H32.4036H32.4425H32.5194H32.6729L32.9769 325.838C33.1772 325.84 33.3748 325.841 33.5712 325.842C33.9535 325.848 34.3269 325.853 34.6951 325.858C35.3499 325.879 35.9816 325.898 36.5974 325.917C37.6804 325.967 38.35 326.036 38.35 326.112C38.35 326.188 37.6804 326.256 36.5974 326.306C35.9816 326.326 35.3499 326.345 34.6951 326.365C34.3269 326.37 33.9535 326.375 33.5712 326.381C33.3748 326.382 33.1772 326.384 32.9769 326.385L32.6729 326.386H32.5194H32.4425H32.4036H32.3841H32.3748H32.3701H32.3673C32.5985 326.633 32.0493 326.052 32.1062 326.11C32.1062 322.613 32.2227 319.777 32.3662 319.777Z" fill="#DADBD8"/>
<path id="path86" d="M32.3662 295.218C32.5096 295.218 32.6257 297.966 32.6257 301.357C32.6257 304.749 32.5096 307.498 32.3662 307.498C32.2227 307.498 32.1062 304.749 32.1062 301.357C32.1062 297.966 32.2227 295.218 32.3662 295.218Z" fill="#DADBD8"/>
<path id="path88" d="M32.3662 270.658C32.5096 270.658 32.6257 273.407 32.6257 276.797C32.6257 280.189 32.5096 282.937 32.3662 282.937C32.2227 282.937 32.1062 280.189 32.1062 276.797C32.1062 273.407 32.2227 270.658 32.3662 270.658Z" fill="#DADBD8"/>
<path id="path90" d="M32.3662 252.043C32.5096 252.043 32.6257 253.461 32.6257 255.21C32.6257 256.96 32.5096 258.377 32.3662 258.377C32.2227 258.377 32.1062 256.96 32.1062 255.21C32.1062 253.461 32.2227 252.043 32.3662 252.043Z" fill="#DADBD8"/>
<path id="path92" d="M77.7406 244.735C79.0789 240.573 77.675 235.591 74.401 232.883C72.7544 231.521 70.6944 230.784 68.6089 230.691C65.3711 230.546 62.5581 228.526 61.2491 225.39C59.1251 220.301 54.9009 216.154 49.8192 214.647C42.5599 212.495 34.1493 215.911 30.1148 222.65C28.9995 224.515 28.0957 226.698 26.2761 227.774C23.9569 229.149 21.0955 228.22 18.4423 228.043C10.5734 227.518 3.1207 236.404 3.5303 244.735H77.7406" fill="#CCEDE0"/>
<path id="path94" d="M280.952 38.7373C282.291 34.5747 280.888 29.5919 277.613 26.8841C275.967 25.5233 273.907 24.7854 271.822 24.6925C268.584 24.5479 265.771 22.5283 264.462 19.3919C262.338 14.3024 258.114 10.1546 253.032 8.64819C245.772 6.4967 237.361 9.91184 233.328 16.6513C232.212 18.5157 231.308 20.6988 229.489 21.7767C227.169 23.1501 224.308 22.2211 221.655 22.0448C213.786 21.5191 206.333 30.4058 206.743 38.7373L280.952 38.7373" fill="#CCEDE0"/>
<path id="path96" d="M283.254 182.933C285.572 221.801 317.23 251.322 353.962 248.869C390.695 246.416 418.593 212.918 416.275 174.051C413.957 135.183 382.299 105.662 345.567 108.115C308.833 110.568 280.936 144.066 283.254 182.933Z" fill="#CCEDE0"/>
<path id="path98" d="M267.413 365.025C265.831 407.437 236.313 442.533 196.207 443.359C156.102 444.183 122.957 410.451 122.177 368.014C121.397 325.577 153.387 286.426 193.382 289.681C236.042 293.153 268.856 326.33 267.413 365.025Z" fill="#CCEDE0"/>
<path id="path100" d="M15.225 109.997C14.4955 149.701 44.3222 182.514 81.845 183.286C119.368 184.059 150.378 152.498 151.108 112.794C151.837 73.0893 122.01 40.2776 84.4881 39.5049C46.9652 38.7332 15.9546 70.2939 15.225 109.997Z" fill="#CCEDE0"/>
<path id="path102" d="M341.158 195.114C342.214 196.144 316.462 227.502 283.649 265.148C250.825 302.807 223.37 332.491 222.315 331.462C221.261 330.433 247.006 299.081 279.83 261.421C312.643 223.776 340.104 194.084 341.158 195.114Z" fill="#CCEDE0"/>
<path id="path104" d="M327.502 143.98C327.196 145.463 281.819 136.275 226.159 123.461C170.482 110.643 125.608 99.0518 125.913 97.5675C126.218 96.0854 171.587 105.271 227.265 118.09C282.924 130.904 327.807 142.496 327.502 143.98Z" fill="#CCEDE0"/>
<path id="path106" d="M162.076 317.677C161.479 318.067 154.421 307.386 143.733 289.632C133.042 271.88 118.779 247.018 103.76 219.107C88.7431 191.182 75.8206 165.509 66.8538 146.719C57.884 127.929 52.8087 116.057 53.4306 115.715C54.0807 115.356 60.3058 126.587 70.0924 144.883C79.871 163.196 93.3664 188.468 108.275 216.388C123.345 244.197 136.99 269.375 146.878 287.622C156.748 305.869 162.698 317.269 162.076 317.677Z" fill="#CCEDE0"/>
<path id="path108" d="M374.778 81.2825C375.126 87.3073 375.517 89.1367 377.629 93.9412C378.88 96.7905 380.642 99.4307 381.337 102.485C381.998 105.388 381.643 108.452 382.148 111.388C382.974 116.183 385.98 120.171 388.236 124.42C390.494 128.669 392.016 134.046 389.774 138.304L366.692 135.42L365.065 105.097L374.778 81.2825Z" fill="#17282F"/>
<path id="path110" d="M328.887 71.0022C325.899 77.709 330.054 84.4168 327.066 91.1246C325.584 94.4479 324.093 97.8029 323.303 101.382C322.59 104.606 322.448 108.003 321.205 111.042C319.225 115.886 314.73 119.16 312.648 123.955C309.564 131.06 312.841 139.961 318.736 144.673C324.632 149.385 332.458 150.56 339.829 150.013C344.297 149.682 348.827 148.739 352.674 146.308C356.518 143.877 359.602 139.768 360.087 135.057" fill="#17282F"/>
<path id="path112" d="M363.115 59.0614C377.969 66.0299 380.921 91.8435 380.996 95.3189C381.084 99.4645 383.171 100.324 385.775 102.49C388.379 104.656 390.9 107.283 391.62 110.648C392.187 113.296 391.593 116.225 392.791 118.64C394.22 121.525 397.608 122.597 400.236 124.378C405.203 127.743 407.654 134.074 407.93 140.184C408.203 146.296 406.616 152.315 405.041 158.214C404.418 160.554 403.642 163.111 401.636 164.387C400.091 165.371 398.158 165.359 396.34 165.316C386.938 165.094 377.535 164.872 368.132 164.65C360.937 164.48 353.552 164.271 346.902 161.442C341.498 159.142 336.76 155.085 333.863 149.859C330.967 144.633 329.995 138.243 331.516 132.434C332.688 127.955 335.257 123.911 335.999 119.337C336.918 113.673 332.429 111.249 330.803 105.755C329.176 100.263 327.832 87.0845 330.061 81.8188" fill="#17282F"/>
<path id="path114" d="M380.093 201.389L375.455 185.657L374.778 209.677C374.778 209.677 380.795 226.088 385.379 238.63C376.177 244.44 365.578 248.1 354.148 248.863C339.934 249.812 326.452 246.168 314.983 239.151L322.127 211.989L318.722 181.27L309.297 195.532L289.191 174.966C289.191 174.966 303.909 146.192 305.734 143.567C317.37 126.829 337.473 127.229 337.473 127.229L365.912 128.897C365.912 128.897 381.905 127.949 392.409 141.341C392.409 141.341 402.677 157.923 411.11 198.847L380.093 201.389Z" fill="#FFCC2A"/>
<path id="path116" d="M394.316 145.841C394.317 145.849 394.177 145.872 393.904 145.909C393.633 145.957 393.22 145.971 392.693 146.084C391.632 146.252 390.075 146.636 388.183 147.458C386.313 148.309 384.089 149.63 381.984 151.765C380.934 152.83 379.913 154.088 379.02 155.558C378.15 157.031 377.293 158.694 376.958 160.589C376.796 161.528 376.785 162.532 377.048 163.482C377.315 164.421 377.894 165.295 378.684 165.885C379.463 166.484 380.519 166.734 381.445 166.345C382.372 165.977 383.056 165.039 383.36 163.989C383.672 162.929 383.623 161.743 383.14 160.706C382.678 159.66 381.898 158.763 380.979 158.048C379.126 156.617 376.812 155.735 374.39 155.454C371.962 155.16 369.42 155.456 366.931 156.157C364.449 156.877 361.943 157.866 359.664 159.366C357.395 160.866 355.239 162.763 353.65 165.16C352.885 166.356 352.247 167.726 352.215 169.162C352.203 169.871 352.359 170.583 352.722 171.185C353.076 171.79 353.593 172.288 354.176 172.69L354.129 172.665C354.789 172.924 355.525 173.042 356.162 172.754C356.801 172.479 357.286 171.855 357.611 171.146C358.263 169.706 358.447 167.999 358.453 166.334C358.435 164.689 358.259 163.02 357.708 161.52C357.17 160.01 356.271 158.663 355.182 157.56C352.991 155.337 350.087 154.053 347.164 153.737C344.228 153.398 341.297 153.887 338.572 154.761C335.871 155.642 333.166 156.808 331.431 158.992C330.609 160.074 329.993 161.415 330.157 162.759C330.291 164.09 330.929 165.378 331.895 166.192C332.374 166.598 332.94 166.882 333.526 166.945C334.111 167.009 334.705 166.852 335.206 166.518C336.227 165.854 336.693 164.563 336.796 163.331C336.907 162.082 336.748 160.821 336.412 159.655C336.232 159.074 335.993 158.511 335.79 157.946C335.68 157.668 335.591 157.379 335.464 157.111L335.061 156.324C334.05 154.197 332.654 152.411 331.198 150.879C328.228 147.846 324.857 145.903 321.726 144.878C318.593 143.838 315.727 143.549 313.42 143.713C311.112 143.874 309.351 144.335 308.195 144.735C307.636 144.948 307.202 145.112 306.886 145.233C306.589 145.341 306.433 145.385 306.433 145.385C306.433 145.385 306.575 145.308 306.866 145.181C307.178 145.048 307.608 144.865 308.161 144.631C309.313 144.195 311.078 143.696 313.407 143.498C315.734 143.301 318.635 143.56 321.813 144.585C324.99 145.595 328.419 147.535 331.455 150.6C332.942 152.148 334.373 153.959 335.416 156.124L335.83 156.927C335.96 157.2 336.053 157.493 336.167 157.777C336.377 158.356 336.621 158.924 336.809 159.526C337.165 160.742 337.337 162.049 337.224 163.377C337.121 164.676 336.626 166.134 335.442 166.916C334.877 167.299 334.17 167.495 333.482 167.42C332.79 167.347 332.144 167.019 331.61 166.569C330.536 165.663 329.848 164.284 329.69 162.808C329.605 162.073 329.717 161.282 329.986 160.597C330.241 159.901 330.612 159.25 331.062 158.672C332.912 156.341 335.695 155.161 338.429 154.259C341.196 153.366 344.191 152.857 347.22 153.202C350.236 153.524 353.256 154.849 355.54 157.166C356.678 158.316 357.624 159.729 358.192 161.323C358.776 162.922 358.953 164.633 358.972 166.332C358.964 168.054 358.787 169.81 358.076 171.388C357.72 172.162 357.163 172.911 356.358 173.261C355.552 173.621 354.669 173.463 353.943 173.176L353.919 173.166L353.896 173.15C353.267 172.715 352.688 172.164 352.282 171.47C351.868 170.78 351.686 169.952 351.701 169.153C351.743 167.538 352.436 166.101 353.23 164.854C354.885 162.368 357.083 160.448 359.403 158.918C361.743 157.386 364.284 156.389 366.809 155.663C369.343 154.956 371.944 154.658 374.443 154.967C376.937 155.267 379.314 156.177 381.242 157.676C382.199 158.428 383.03 159.38 383.526 160.516C384.047 161.642 384.103 162.973 383.753 164.119C383.417 165.263 382.659 166.316 381.585 166.739C380.515 167.181 379.311 166.876 378.464 166.217C377.601 165.563 376.984 164.619 376.697 163.592C376.418 162.563 376.44 161.503 376.614 160.521C376.977 158.545 377.862 156.871 378.756 155.378C379.674 153.89 380.722 152.624 381.794 151.554C383.948 149.41 386.211 148.102 388.111 147.272C390.031 146.47 391.607 146.117 392.679 145.981C393.75 145.838 394.316 145.841 394.316 145.841Z" fill="#FAFAF9"/>
<path id="path118" d="M406.37 180.237C406.396 180.305 405.37 180.544 403.789 181.556C402.231 182.544 400.084 184.442 398.689 187.602C398.333 188.382 398.07 189.249 397.867 190.166C397.647 191.079 397.586 192.06 397.861 193.001C397.994 193.464 398.231 193.899 398.586 194.166C398.944 194.418 399.426 194.495 399.844 194.312C400.697 193.935 401.266 192.875 401.363 191.797C401.636 189.602 400.378 187.157 398.331 186.096C396.268 185.021 393.572 185.322 391.553 186.772C389.507 188.234 388.233 190.618 387.715 193.008C387.456 194.191 387.429 195.462 387.982 196.427C388.511 197.395 389.635 197.966 390.545 197.495C391.458 197.06 392.007 196.005 391.998 194.982C392.013 193.944 391.633 192.944 391.139 192.098C390.136 190.384 388.61 189.227 387.092 188.649C385.562 188.058 384.034 188.051 382.779 188.373C381.519 188.695 380.51 189.267 379.78 189.848C378.304 191.024 377.845 192.059 377.788 192.006C377.78 192.001 377.808 191.939 377.871 191.823C377.934 191.708 378.023 191.532 378.171 191.324C378.452 190.898 378.919 190.296 379.657 189.678C380.386 189.057 381.41 188.439 382.709 188.074C384.003 187.711 385.607 187.687 387.215 188.281C388.812 188.865 390.425 190.053 391.504 191.857C392.033 192.748 392.459 193.811 392.454 194.989C392.469 196.154 391.856 197.42 390.738 197.959C390.187 198.231 389.501 198.246 388.93 197.98C388.354 197.723 387.884 197.258 387.559 196.7C386.898 195.546 386.953 194.135 387.219 192.889C387.756 190.386 389.078 187.881 391.262 186.316C393.427 184.766 396.302 184.437 398.554 185.613C400.799 186.795 402.143 189.427 401.838 191.861C401.71 193.056 401.106 194.277 400.007 194.764C399.452 194.999 398.808 194.898 398.333 194.552C397.862 194.19 397.595 193.655 397.45 193.135C397.151 192.09 397.242 191.002 397.476 190.071C397.697 189.126 397.98 188.234 398.356 187.437C399.836 184.206 402.072 182.319 403.687 181.371C405.326 180.401 406.37 180.237 406.37 180.237Z" fill="#FAFAF9"/>
<path id="path120" d="M374.892 195.421C374.889 195.429 374.805 195.415 374.645 195.375C374.455 195.325 374.222 195.264 373.934 195.188C373.308 195.043 372.382 194.819 371.169 194.695C368.77 194.43 365.126 194.462 361.08 196.187C360.072 196.611 359.052 197.153 358.052 197.813C357.065 198.481 356.097 199.311 355.415 200.413C354.727 201.504 354.448 202.923 354.912 204.233C355.13 204.874 355.499 205.482 356.029 205.876C356.548 206.284 357.23 206.434 357.876 206.299C359.177 205.998 360.26 204.668 360.439 203.188C360.639 201.671 360.099 200.092 359.284 198.731C357.631 195.981 354.859 193.851 351.683 193.02C348.497 192.174 345.128 192.838 342.469 194.484C341.146 195.303 339.937 196.365 339.075 197.6C338.669 198.236 338.347 198.936 338.194 199.664C338.034 200.381 338.043 201.148 338.358 201.748C338.655 202.359 339.256 202.762 339.882 202.822C340.518 202.875 341.17 202.653 341.694 202.267C342.799 201.511 343.149 200.052 343.038 198.765C342.933 197.452 342.451 196.234 341.876 195.157C341.277 194.092 340.579 193.141 339.794 192.358C338.227 190.783 336.451 189.802 334.831 189.215C333.199 188.63 331.698 188.467 330.49 188.497C328.048 188.548 326.788 189.23 326.769 189.132C326.765 189.123 326.843 189.087 326.998 189.026C327.183 188.957 327.412 188.872 327.692 188.766C328.311 188.571 329.25 188.337 330.484 188.282C331.712 188.22 333.244 188.353 334.921 188.922C336.585 189.493 338.416 190.473 340.047 192.076C340.863 192.874 341.593 193.846 342.223 194.945C342.827 196.055 343.342 197.315 343.466 198.726C343.53 199.427 343.473 200.168 343.242 200.871C343.021 201.581 342.555 202.23 341.954 202.664C341.359 203.106 340.615 203.376 339.84 203.316C339.063 203.247 338.308 202.746 337.938 201.989C337.543 201.238 337.546 200.342 337.718 199.55C337.887 198.743 338.23 197.992 338.667 197.301C339.604 195.954 340.83 194.886 342.213 194.019C344.972 192.301 348.48 191.604 351.806 192.486C355.117 193.354 357.991 195.566 359.714 198.442C360.563 199.871 361.156 201.562 360.93 203.259C360.708 204.951 359.52 206.433 357.971 206.796C357.199 206.958 356.367 206.766 355.755 206.279C355.131 205.806 354.721 205.109 354.48 204.393C354.247 203.669 354.175 202.902 354.289 202.165C354.396 201.419 354.7 200.763 355.054 200.165C355.796 198.984 356.818 198.133 357.839 197.454C358.871 196.786 359.913 196.247 360.943 195.826C365.081 194.117 368.777 194.15 371.192 194.482C373.637 194.821 374.892 195.421 374.892 195.421Z" fill="#FAFAF9"/>
<path id="path122" d="M263.444 107.429C265.515 107.543 264.925 119.477 266.456 116.952C267.987 114.426 265.576 102.31 267.734 102.524C270.546 102.803 269.711 115.29 269.714 116.351C269.716 117.382 271.165 117.403 271.113 116.447C271.04 115.074 270.605 100.613 273.369 100.859C274.901 100.995 274.343 103.891 274.343 103.891C274.343 103.891 273.807 117.48 275.117 117.548C276.446 117.62 277.014 109.647 277.027 106.948C277.039 104.283 278.242 103.172 279.353 104.128C280.111 104.779 280.258 113.037 280.187 115.707C280.116 118.376 279.798 125.698 282.726 122.147C285.656 118.597 289.142 117.002 290.352 117.257C291.562 117.513 291.622 119.397 290.372 120.008C289.359 120.501 287.902 121.871 286.844 122.947C285.973 123.834 285.349 124.931 284.69 125.999C283.987 127.138 283.722 127.87 283.149 129.783L287.072 179.553L289.955 175.746L306.393 192.561L297.816 203.003C291.53 210.655 280.161 211.148 273.776 203.591C273.544 203.315 273.32 203.032 273.105 202.742C271.511 200.586 270.659 197.919 270.441 195.19L265.013 130.663L264.964 130.665C264.845 123.494 263.005 118.044 262.686 114.347C262.091 107.468 262.675 107.385 263.444 107.429Z" fill="#F8A58D"/>
<path id="path124" d="M339.425 134.026C339.485 126.52 339.419 118.618 339.419 118.618C339.419 118.618 330.299 116.901 328.544 104.264C326.871 92.212 329.71 66.2907 329.71 66.2907C342.921 60.7769 357.798 62.9094 367.053 74.1619L365.614 135.109C365.448 142.184 359.565 147.667 352.406 147.42C345.177 147.171 339.368 141.176 339.425 134.026Z" fill="#F8A58D"/>
<path id="path126" d="M332.193 86.1946C332.154 87.0486 332.807 87.7855 333.649 87.8446C334.489 87.9027 335.202 87.2598 335.24 86.4057C335.278 85.5517 334.626 84.8127 333.785 84.7546C332.943 84.6955 332.231 85.3405 332.193 86.1946Z" fill="#17282F"/>
<path id="path128" d="M329.734 84.3524C329.92 84.5657 331.089 83.6736 332.735 83.6979C334.377 83.6979 335.575 84.6079 335.756 84.3967C335.845 84.3038 335.656 83.9206 335.134 83.5089C334.621 83.0993 333.742 82.696 332.718 82.6886C331.693 82.6823 330.826 83.0708 330.326 83.473C329.816 83.8784 329.641 84.2574 329.734 84.3524Z" fill="#17282F"/>
<path id="path130" d="M349.03 86.7076C348.992 87.5617 349.645 88.2996 350.487 88.3587C351.328 88.4157 352.041 87.7728 352.079 86.9188C352.117 86.0647 351.464 85.3257 350.624 85.2677C349.781 85.2096 349.069 85.8536 349.03 86.7076Z" fill="#17282F"/>
<path id="path132" d="M346.893 85.1949C347.079 85.4081 348.249 84.5161 349.894 84.5404C351.536 84.5404 352.734 85.4504 352.915 85.2392C353.004 85.1463 352.816 84.7631 352.293 84.3514C351.78 83.9418 350.902 83.5385 349.877 83.5311C348.853 83.5237 347.986 83.9133 347.486 84.3155C346.977 84.7198 346.8 85.0999 346.893 85.1949Z" fill="#17282F"/>
<path id="path134" d="M340.781 98.032C340.79 97.9327 339.768 97.7343 338.114 97.4893C337.694 97.4376 337.298 97.3447 337.23 97.0407C337.135 96.7176 337.316 96.2415 337.525 95.7263C337.932 94.6559 338.358 93.5326 338.804 92.3566C340.582 87.5585 341.875 83.6113 341.692 83.5374C341.507 83.4635 339.919 87.2925 338.14 92.0906C337.713 93.274 337.303 94.4015 336.913 95.4814C336.748 95.9839 336.469 96.554 336.677 97.2233C336.785 97.5569 337.092 97.8008 337.36 97.881C337.628 97.9718 337.864 97.9792 338.072 97.995C339.738 98.1111 340.773 98.1301 340.781 98.032Z" fill="#17282F"/>
<path id="path136" d="M339.419 118.618C339.419 118.618 347.433 119.263 355.433 114.307C355.433 114.307 351.465 122.925 339.548 121.598L339.419 118.618Z" fill="#F68260"/>
<path id="path138" d="M341.43 102.236C342.031 101.415 343.073 100.973 344.1 101.103C344.814 101.194 345.531 101.566 345.958 102.186C346.385 102.808 346.466 103.681 346.066 104.264C345.615 104.919 344.685 105.06 343.903 104.815C343.121 104.568 342.45 104.013 341.815 103.46C341.638 103.307 341.459 103.148 341.35 102.941C341.242 102.732 341.221 102.462 341.36 102.292" fill="#F68260"/>
<path id="path140" d="M345.609 99.2956C345.341 99.2755 345.317 101.165 343.774 102.488C342.234 103.815 340.333 103.58 340.316 103.843C340.29 103.961 340.736 104.215 341.539 104.248C342.327 104.287 343.481 104.032 344.425 103.224C345.366 102.413 345.779 101.32 345.848 100.546C345.925 99.7569 345.731 99.285 345.609 99.2956Z" fill="#17282F"/>
<path id="path142" d="M361.875 65.1601C357.513 71.7422 345.965 78.5102 337.696 80.0811C338.661 78.7362 343.741 75.4224 344.707 74.0774C340.958 77.0397 335.594 81.0017 330.62 81.2698C330.033 81.3015 329.395 81.2994 328.91 80.9879C328.251 80.5625 328.118 79.7369 328.04 79.0064C327.72 75.9228 327.922 70.6348 328.386 67.5755C328.85 64.515 330.178 61.4704 332.688 59.4192C335.873 56.8149 340.434 56.172 344.73 56.0632C348.333 55.9714 352.048 56.1962 355.342 57.5729C358.635 58.9484 361.453 61.6668 361.934 64.9373" fill="#17282F"/>
<path id="path144" d="M374.382 94.6485C374.983 91.3833 375.462 88.2848 375.573 86.2167C375.925 79.7063 374.148 55.68 352.937 57.614L358.041 64.5077C358.041 64.5077 353.85 79.0708 362.775 89.1135C362.775 89.1135 363.281 94.9916 369.495 101.773C369.495 101.773 373.092 101.658 374.382 94.6485Z" fill="#17282F"/>
<path id="path146" d="M362.523 88.0209C363.8 87.776 365.148 87.8288 366.358 88.3281C367.567 88.8264 368.626 89.7955 369.137 91.0592C369.649 92.3249 369.58 93.8008 369.125 95.0908C368.67 96.3819 367.854 97.502 366.917 98.4574C366.243 99.1436 365.48 99.7686 364.585 100.055C363.69 100.339 362.64 100.233 361.934 99.5859" fill="#F8A58D"/>
<path id="path148" d="M363.138 96.2066C362.992 96.2552 363.537 97.0776 364.706 96.7609C365.268 96.6099 365.822 96.0958 366.16 95.4466C366.502 94.7878 366.727 94.0647 366.821 93.2169C366.91 92.3756 366.739 91.4782 366.307 90.8353C365.896 90.1797 365.217 89.7881 364.644 89.768C363.446 89.7258 363.065 90.5999 363.2 90.6263C363.294 90.7308 363.764 90.2832 364.547 90.4933C365.297 90.6474 366.025 91.7527 365.847 93.1135C365.69 94.5007 365.172 95.7643 364.47 96.0726C363.74 96.4558 363.219 96.0969 363.138 96.2066Z" fill="#F68260"/>
<path id="path150" d="M377.479 217.077V211.312H339.138L327.882 159.162L270.503 159.662L284.416 217.077H377.479Z" fill="#17282F"/>
<path id="path152" d="M297.69 188.153C298.538 190.915 300.847 192.596 302.846 191.909C304.843 191.221 305.777 188.425 304.928 185.663C304.081 182.903 301.772 181.221 299.773 181.908C297.774 182.595 296.842 185.392 297.69 188.153Z" fill="#FAFAF9"/>
<path id="path154" d="M325.254 216.723C324.293 214.777 323.483 212.746 322.858 210.651C322.708 210.151 322.566 209.629 322.633 209.11C322.699 208.59 323.028 208.071 323.513 207.968C324.408 207.777 324.963 208.924 325.313 209.815C326.617 213.143 329.517 215.702 332.834 216.498L335.157 216.429L335.168 216.328L385.319 211.596L382.927 201.069L409.476 198.982L411.896 209.346C413.205 222.292 403.357 233.453 391.062 232.96L333.514 232.976C315.209 234.244 311.768 217.123 311.768 217.123L325.254 216.723Z" fill="#F8A58D"/>
<path id="path156" d="M258.575 386.857L235.908 401.659L244.221 422.827C251.883 415.291 257.997 406.034 262.021 395.65L258.575 386.857Z" fill="#C0776A"/>
<path id="path158" d="M243.324 346.259C230.724 332.548 208.545 334.393 208.545 334.393L179.737 335.478C179.737 335.478 168.782 336.751 158.516 342.426L157.809 342.656L157.817 342.812C149.754 347.445 138.335 358.558 127.458 369.343L140.475 382.125L154.882 395.658C154.882 395.658 154.826 395.755 154.857 395.928C155.008 396.749 152.517 413.122 150.312 427.269C162.97 437.662 178.942 443.714 196.207 443.359C207.2 443.132 217.573 440.328 226.828 435.509L227.904 422.431C228.887 410.574 229.635 395.892 229.635 395.892L233.773 406.996L263.828 390.459C264.146 389.429 264.446 388.392 264.724 387.343C261.793 379.923 251.739 355.417 243.324 346.259Z" fill="#FFCC2A"/>
<path id="path160" d="M209.344 333.236C209.361 333.233 209.404 333.42 209.471 333.781C209.55 334.14 209.61 334.678 209.661 335.377C209.75 336.769 209.645 338.833 208.917 341.233C208.175 343.606 206.754 346.326 204.362 348.528C201.997 350.75 198.609 352.207 194.97 352.401C191.331 352.569 187.829 351.454 185.276 349.477C182.698 347.525 181.041 344.96 180.087 342.671C179.148 340.356 178.858 338.312 178.821 336.918C178.809 336.218 178.82 335.675 178.867 335.31C178.901 334.944 178.927 334.753 178.945 334.755C179.003 334.759 178.923 335.527 179.022 336.905C179.12 338.277 179.462 340.27 180.422 342.513C181.396 344.727 183.043 347.198 185.552 349.064C188.034 350.953 191.42 352.014 194.947 351.851C198.471 351.662 201.748 350.27 204.049 348.144C206.381 346.034 207.8 343.411 208.569 341.106C209.323 338.78 209.485 336.76 209.459 335.386C209.436 334.004 209.285 333.246 209.344 333.236Z" fill="#17282F"/>
<path id="path162" d="M236.778 339.849C236.787 339.917 236.011 339.884 234.739 340.36C233.474 340.812 231.74 341.92 230.275 343.942C228.78 345.94 227.82 348.892 227.44 352.239C227.24 353.915 227.154 355.694 227.095 357.544C227.023 359.392 226.994 361.307 226.973 363.269C226.916 371.121 227.355 378.221 227.826 383.341C228.052 385.903 228.295 387.97 228.444 389.402C228.516 390.066 228.575 390.611 228.623 391.049C228.658 391.427 228.668 391.626 228.65 391.629C228.633 391.633 228.588 391.437 228.518 391.066C228.445 390.631 228.354 390.09 228.244 389.431C228.032 388.006 227.734 385.945 227.46 383.381C226.896 378.261 226.396 371.142 226.452 363.265C226.475 361.297 226.508 359.376 226.586 357.523C226.653 355.67 226.749 353.875 226.967 352.173C227.376 348.778 228.401 345.737 229.986 343.703C231.534 341.647 233.357 340.558 234.675 340.156C236.002 339.733 236.778 339.849 236.778 339.849Z" fill="#17282F"/>
<path id="path164" d="M168.21 337.869C168.228 337.875 168.185 338.079 168.087 338.463C167.969 338.902 167.82 339.453 167.639 340.131C167.22 341.648 166.648 343.721 165.951 346.251C164.538 351.422 162.672 358.591 160.849 366.572C159.029 374.556 157.596 381.837 156.622 387.119C156.152 389.708 155.767 391.827 155.485 393.38C155.355 394.07 155.25 394.633 155.166 395.08C155.086 395.47 155.036 395.672 155.019 395.668C155.001 395.665 155.016 395.457 155.062 395.064C155.121 394.609 155.195 394.042 155.286 393.345C155.489 391.853 155.82 389.702 156.261 387.049C157.143 381.743 158.521 374.438 160.344 366.443C162.17 358.45 164.094 351.286 165.599 346.139C166.35 343.566 166.982 341.491 167.446 340.066C167.666 339.401 167.845 338.86 167.988 338.428C168.117 338.055 168.193 337.862 168.21 337.869Z" fill="#17282F"/>
<path id="path166" d="M264.158 382.248C264.178 382.28 263.758 382.61 262.983 383.176C262.209 383.745 261.074 384.544 259.658 385.511C256.828 387.447 252.868 390.034 248.406 392.741C243.942 395.446 239.829 397.756 236.821 399.359C235.316 400.163 234.091 400.795 233.236 401.214C232.382 401.634 231.902 401.853 231.885 401.818C231.87 401.784 232.319 401.503 233.144 401.023C234.057 400.5 235.235 399.826 236.65 399.015C239.612 397.325 243.692 394.964 248.147 392.265C252.601 389.562 256.587 387.031 259.463 385.182C260.84 384.301 261.985 383.565 262.874 382.996C263.683 382.485 264.139 382.217 264.158 382.248Z" fill="#17282F"/>
<path id="path168" d="M156.373 386.884C156.282 387.001 150.617 382.277 143.722 376.333C136.825 370.387 131.308 365.473 131.399 365.354C131.49 365.236 137.152 369.961 144.051 375.906C150.947 381.851 156.464 386.767 156.373 386.884Z" fill="#17282F"/>
<path id="path170" d="M233.773 406.996L229.635 395.893L233.773 406.996L237.252 405.081V405.082L233.773 406.996" fill="#A7AAA9"/>
<path id="path172" d="M237.252 405.082V405.081L237.97 404.686L237.252 405.082Z" fill="#915C52"/>
<path id="path174" fill-rule="evenodd" clip-rule="evenodd" d="M229.635 395.893L233.773 406.996L237.252 405.081L237.97 404.686L236.491 399.535C235.137 400.255 234.028 400.825 233.236 401.214C232.44 401.606 231.969 401.822 231.895 401.822C231.89 401.822 231.887 401.821 231.885 401.818C231.87 401.784 232.319 401.503 233.144 401.023C233.859 400.614 234.737 400.111 235.763 399.523C235.965 399.408 236.172 399.289 236.385 399.167L226.976 366.417C227.035 373.009 227.419 378.915 227.826 383.341C227.943 384.675 228.065 385.874 228.177 386.919C228.926 392.005 229.635 395.893 229.635 395.893ZM226.812 375.853C226.525 372.715 226.37 369.773 226.475 367.535C226.526 370.483 226.648 373.281 226.812 375.853Z" fill="#EDBC20"/>
<path id="path176" d="M228.177 386.919C227.673 383.5 227.15 379.54 226.812 375.853C226.648 373.281 226.525 370.483 226.475 367.535C226.512 366.735 226.582 366.026 226.691 365.429L226.975 366.417C227.035 373.009 227.418 378.915 227.825 383.341C227.943 384.675 228.065 385.874 228.177 386.919Z" fill="#111D23"/>
<path id="path178" d="M231.895 401.822C231.89 401.822 231.887 401.821 231.885 401.818C231.87 401.784 232.319 401.503 233.144 401.023C233.999 400.534 235.088 399.91 236.385 399.167L236.49 399.535C235.137 400.255 234.028 400.825 233.236 401.214C232.44 401.606 231.969 401.822 231.895 401.822" fill="#111D23"/>
<path id="path180" fill-rule="evenodd" clip-rule="evenodd" d="M178.843 335.557C176.337 336.009 171.637 336.921 169.793 337.717C173.926 336.449 177.302 335.841 178.84 335.603L178.843 335.557ZM178.969 335.535V335.584C179.466 335.508 179.737 335.478 179.737 335.478L180.536 335.447L180.473 335.273C180.473 335.273 179.883 335.37 178.969 335.535Z" fill="#A7AAA9"/>
<path id="path182" fill-rule="evenodd" clip-rule="evenodd" d="M169.432 337.893C163.5 341.201 177.859 349.049 184.953 349.226C182.558 347.308 181 344.863 180.087 342.671C179.148 340.356 178.858 338.312 178.821 336.917C178.812 336.385 178.816 335.945 178.84 335.603C177.301 335.841 173.926 336.449 169.793 337.717C169.656 337.777 169.534 337.835 169.432 337.893ZM180.422 342.513C181.371 344.67 182.959 347.071 185.361 348.919L180.536 335.447L179.737 335.478C179.737 335.478 179.465 335.508 178.969 335.584C178.972 335.926 178.984 336.37 179.022 336.905C179.12 338.277 179.462 340.27 180.422 342.513Z" fill="#EDBC20"/>
<path id="path184" d="M185.193 349.229C185.114 349.229 185.034 349.228 184.953 349.226C182.558 347.308 181 344.863 180.087 342.671C179.148 340.356 178.858 338.312 178.821 336.917C178.812 336.385 178.816 335.945 178.84 335.603C178.841 335.587 178.842 335.573 178.843 335.557C178.885 335.549 178.928 335.542 178.969 335.535C178.969 335.55 178.969 335.567 178.969 335.584C178.972 335.926 178.984 336.37 179.023 336.905C179.12 338.277 179.463 340.27 180.422 342.513C181.371 344.67 182.959 347.071 185.361 348.919L185.471 349.225C185.38 349.228 185.287 349.229 185.193 349.229" fill="#111D23"/>
<path id="path186" d="M172.13 394.962L174.505 380.903L210.898 380.154L208.231 394.821L172.13 394.962" fill="#F2577A"/>
<path id="path188" d="M204.773 287.943C204.49 289.001 204.858 290.218 205.666 290.909C206.473 291.599 207.676 291.721 208.593 291.204C210.335 290.225 210.511 287.652 210.126 285.605C209.742 283.558 209.042 281.378 209.821 279.461C210.418 277.993 211.751 277.045 212.781 275.879C214.579 273.848 215.502 270.922 215.006 268.189C214.509 265.457 212.521 263.033 209.976 262.337C207.377 261.625 204.208 262.531 202.247 260.591C200.827 259.184 200.698 256.835 199.587 255.145C197.864 252.521 194.314 252.171 191.331 252.667C188.347 253.161 185.32 254.238 182.375 253.528C179.916 252.934 177.874 251.166 175.56 250.103C170.545 247.801 164.215 249.235 160.529 253.509C156.845 257.783 156.077 264.584 158.703 269.658C159.648 271.48 161.049 273.126 162.884 273.867" fill="#17282F"/>
<path id="path190" d="M194.306 352.08C186.377 352.094 179.836 345.576 179.443 337.271C179.117 330.353 178.844 323.692 178.844 323.692C178.844 323.692 166.706 322.762 165.587 310.207C164.466 297.65 164.312 268.614 164.312 268.614C177.704 261.176 193.881 261.92 206.594 270.556L207.748 271.342L209.151 336.318C209.24 344.985 202.572 352.067 194.306 352.08Z" fill="#C0776A"/>
<path id="path192" d="M187.342 287.929C186.426 288.246 185.929 289.283 186.234 290.243C186.537 291.202 187.525 291.722 188.441 291.404C189.356 291.085 189.852 290.048 189.548 289.089C189.245 288.129 188.257 287.61 187.342 287.929Z" fill="#17282F"/>
<path id="path194" d="M184.016 288.581C184.217 288.787 185.341 287.762 186.993 287.65C188.644 287.513 189.896 288.358 190.067 288.124C190.151 288.018 189.941 287.638 189.394 287.253C188.857 286.871 187.951 286.526 186.921 286.604C185.892 286.682 185.044 287.159 184.564 287.618C184.075 288.081 183.919 288.49 184.016 288.581Z" fill="#17282F"/>
<path id="path196" d="M169.226 287.929C168.311 288.246 167.815 289.283 168.119 290.243C168.422 291.202 169.41 291.722 170.326 291.404C171.24 291.085 171.736 290.048 171.433 289.089C171.13 288.129 170.142 287.61 169.226 287.929Z" fill="#17282F"/>
<path id="path198" d="M165.678 288.62C165.879 288.826 167.003 287.8 168.657 287.689C170.308 287.551 171.56 288.396 171.729 288.162C171.814 288.058 171.604 287.676 171.056 287.292C170.519 286.91 169.614 286.565 168.584 286.643C167.555 286.72 166.706 287.197 166.226 287.657C165.737 288.12 165.582 288.529 165.678 288.62Z" fill="#17282F"/>
<path id="path200" d="M178.146 302.196C178.146 302.06 177.109 301.93 175.431 301.831C174.996 301.819 174.649 301.744 174.599 301.505C174.499 301.236 174.63 300.739 174.807 300.181C175.143 299.001 175.484 297.804 175.841 296.552C177.257 291.387 178.201 287.14 177.951 287.065C177.701 286.99 176.351 291.115 174.935 296.28C174.603 297.539 174.286 298.742 173.973 299.931C173.854 300.467 173.602 301.105 173.882 301.832C174.031 302.196 174.391 302.438 174.682 302.491C174.976 302.558 175.219 302.537 175.427 302.53C177.106 302.449 178.145 302.332 178.146 302.196Z" fill="#17282F"/>
<path id="path202" d="M183.657 303.651C180.347 305.351 178.811 305.87 175.752 306.808C175.752 306.808 177.929 309.874 181.282 308.253C184.763 306.57 183.657 303.651 183.657 303.651Z" fill="white"/>
<path id="path204" d="M178.811 323.514C178.811 323.514 186.435 323.514 194.076 317.522C194.076 317.522 191.082 326.883 179.035 326.771L178.811 323.514Z" fill="#AC584F"/>
<path id="path206" d="M208.039 284.038C208.026 283.022 208.768 282.147 209.735 282.098C211.973 281.987 215.653 282.843 216.116 289.317C216.777 298.563 208.245 296.428 208.211 296.164C208.184 295.958 208.082 287.636 208.039 284.038Z" fill="#C0776A"/>
<path id="path208" d="M210.089 292.487C210.125 292.454 210.25 292.587 210.519 292.691C210.781 292.793 211.222 292.843 211.669 292.625C212.575 292.193 213.248 290.58 213.171 288.91C213.134 288.067 212.908 287.278 212.577 286.638C212.26 285.983 211.808 285.544 211.333 285.493C210.858 285.417 210.547 285.737 210.458 286.006C210.358 286.274 210.428 286.455 210.382 286.474C210.358 286.499 210.181 286.334 210.225 285.947C210.248 285.76 210.336 285.533 210.531 285.339C210.729 285.142 211.033 285.026 211.363 285.037C212.047 285.032 212.705 285.641 213.07 286.344C213.472 287.048 213.745 287.932 213.787 288.879C213.864 290.746 213.08 292.562 211.832 293.049C211.225 293.267 210.692 293.113 210.41 292.916C210.12 292.709 210.06 292.505 210.089 292.487Z" fill="#AC584F"/>
<path id="path210" d="M189.903 283.427C189.53 283.935 188.228 283.698 186.536 283.621C184.848 283.479 183.527 283.546 183.219 282.994C182.87 282.419 184.504 281.098 186.681 281.287C188.863 281.38 190.321 282.902 189.903 283.427Z" fill="#17282F"/>
<path id="path212" d="M170.833 283.105C170.709 283.746 169.613 284.051 168.376 284.174C167.138 284.279 166.009 284.181 165.78 283.573C165.549 282.984 166.586 281.991 168.182 281.845C169.776 281.696 170.963 282.482 170.833 283.105Z" fill="#17282F"/>
<path id="path214" d="M162.626 272.589C162.626 272.589 169.827 276.277 179.197 271.329C185.347 268.081 192.514 266.494 194.095 267.802C195.675 269.11 196.009 275.815 202.1 277.772C202.1 277.772 201.682 290.565 206.502 290.107C211.322 289.651 208.31 269.839 208.31 269.839L196.518 263.746L183.65 261.174L171.526 262.983L162.145 265.701L162.626 272.589Z" fill="#17282F"/>
<path id="path216" d="M119.552 294.49C119.978 295.214 133.848 346.064 133.848 346.064L106.33 350.035L93.6724 308.541L119.552 294.49Z" fill="#33535F"/>
<path id="path218" d="M133.848 346.064L136.32 344.673L121.921 293.156L119.256 294.651L133.848 346.064" fill="#17282F"/>
<path id="path220" d="M108.024 307.992C108.16 308.658 107.757 309.315 107.128 309.458C106.497 309.602 105.878 309.176 105.742 308.51C105.607 307.844 106.008 307.187 106.638 307.044C107.269 306.9 107.889 307.326 108.024 307.992Z" fill="#17282F"/>
<path id="path222" d="M128.657 369.272L110.605 381.715L107.283 337.196L107.565 334.973L119.794 330.034L116.279 320.506C114.561 316.059 109.619 314.116 105.574 316.295C104.27 316.997 102.899 317.736 101.659 318.405C98.8698 319.908 96.8054 322.588 95.9988 325.788C94.609 331.303 93.3719 337.264 93.5009 336.746H93.5025H93.5009L85.7657 394.052C85.7657 394.052 82.0868 410.574 92.7702 418.435C100.842 424.374 114.436 418.067 121.651 413.751L152.918 393.812L128.657 369.272Z" fill="#C0776A"/>
<path id="path224" d="M147.102 135.578L134.855 115.864L114.21 129.587L132.926 160.125C132.926 160.125 143.223 148.305 147.102 135.578Z" fill="#F68260"/>
<path id="path226" d="M70.375 36.9807C71.3856 35.8047 70.0158 33.9646 68.6041 33.422C67.1926 32.8794 65.4342 32.6302 64.7591 31.2093C63.9407 29.4864 65.387 27.5608 65.6478 25.6511C65.9264 23.6094 64.8137 21.668 64.4841 19.6348C64.0635 17.0473 65.0218 14.2592 66.9139 12.5606C68.8061 10.8631 71.563 10.3194 73.9068 11.1808C74.056 7.20302 76.7097 3.46484 80.2764 2.2033C83.8435 0.941757 88.0883 2.2413 90.468 5.32285C92.3278 3.82694 94.2163 2.31309 96.3832 1.38831C98.5501 0.463535 101.066 0.18272 103.203 1.18245C105.34 2.18113 106.926 4.66938 106.513 7.10168C108.131 5.06737 111.14 4.66938 113.409 5.80741C115.679 6.94543 117.221 9.35239 117.883 11.9167C118.807 15.4975 118.002 19.7234 115.301 22.0945C112.601 24.4656 107.979 24.2449 105.98 21.194" fill="#17282F"/>
<path id="path228" d="M83.6231 97.654C91.0414 97.6656 97.1624 91.567 97.5291 83.7982C97.8343 77.3258 98.0899 71.093 98.0899 71.093C98.0899 71.093 109.447 70.2231 110.494 58.4755C111.542 46.7289 111.685 19.5619 111.685 19.5619C99.1574 12.6018 84.0218 13.2985 72.127 21.3798L71.0471 22.1135L69.7352 82.9072C69.6503 91.0148 75.8902 97.6414 83.6231 97.654Z" fill="#F8A58D"/>
<path id="path230" d="M90.1395 37.6321C90.9961 37.9298 91.4603 38.8999 91.1762 39.7973C90.8921 40.6957 89.968 41.1823 89.1114 40.8836C88.2552 40.5859 87.7911 39.6167 88.0748 38.7184C88.3588 37.82 89.2833 37.3344 90.1395 37.6321Z" fill="#17282F"/>
<path id="path232" d="M93.2515 38.2433C93.0641 38.4365 92.0115 37.4769 90.4659 37.3724C88.9205 37.2436 87.7491 38.0343 87.5896 37.8158C87.5113 37.7176 87.7078 37.3608 88.2199 37.0008C88.723 36.6429 89.569 36.3209 90.5328 36.3927C91.4959 36.4655 92.2901 36.9121 92.7387 37.3418C93.1966 37.7756 93.3416 38.1578 93.2515 38.2433Z" fill="#17282F"/>
<path id="path234" d="M107.088 37.6321C107.944 37.9298 108.409 38.8999 108.125 39.7973C107.84 40.6957 106.916 41.1823 106.059 40.8836C105.203 40.5859 104.74 39.6167 105.024 38.7184C105.307 37.82 106.232 37.3344 107.088 37.6321Z" fill="#17282F"/>
<path id="path236" d="M110.407 38.2792C110.22 38.4724 109.168 37.5128 107.622 37.4083C106.076 37.2795 104.906 38.0702 104.747 37.8516C104.668 37.7535 104.864 37.3966 105.376 37.0367C105.879 36.6788 106.726 36.3568 107.69 36.4286C108.652 36.5025 109.446 36.948 109.895 37.3787C110.354 37.8115 110.498 38.1937 110.407 38.2792Z" fill="#17282F"/>
<path id="path238" d="M98.7429 50.9811C98.7422 50.8534 99.713 50.733 101.283 50.6401C101.69 50.6285 102.016 50.5599 102.062 50.334C102.154 50.0838 102.034 49.6182 101.867 49.0967C101.552 47.9914 101.233 46.8735 100.9 45.7016C99.575 40.8677 98.6911 36.8951 98.9246 36.8244C99.1584 36.7537 100.422 40.6132 101.747 45.4462C102.058 46.6243 102.354 47.7497 102.647 48.8613C102.758 49.3638 102.994 49.9603 102.732 50.6412C102.593 50.9811 102.256 51.207 101.984 51.2577C101.709 51.32 101.481 51.301 101.287 51.2925C99.7157 51.2197 98.7433 51.1089 98.7429 50.9811Z" fill="#17282F"/>
<path id="path240" d="M93.587 52.342C96.6829 53.9318 98.1206 54.4185 100.982 55.2968C100.982 55.2968 98.9457 58.1651 95.8084 56.6481C92.5519 55.073 93.587 52.342 93.587 52.342Z" fill="white"/>
<path id="path242" d="M98.121 70.9262C98.121 70.9262 90.9876 70.9252 83.8396 65.3205C83.8396 65.3205 86.6406 74.0785 97.9113 73.975L98.121 70.9262Z" fill="#F68260"/>
<path id="path244" d="M70.7749 39.3676C70.7863 38.4164 70.0929 37.5972 69.1876 37.5529C67.0944 37.4484 63.6516 38.2507 63.2186 44.3061C62.5993 52.9564 70.582 50.9601 70.6144 50.7131C70.6397 50.5199 70.7348 42.7342 70.7749 39.3676Z" fill="#F8A58D"/>
<path id="path246" d="M68.8571 47.2726C68.8232 47.2409 68.7063 47.3665 68.4549 47.4636C68.2097 47.5587 67.7971 47.6051 67.3793 47.4024C66.5316 46.9981 65.9015 45.4885 65.9731 43.926C66.0082 43.1374 66.2191 42.3995 66.53 41.7999C66.8274 41.1876 67.2491 40.7759 67.6934 40.7284C68.1377 40.6576 68.4284 40.9575 68.5122 41.2098C68.6053 41.46 68.5407 41.6278 68.5835 41.6468C68.6049 41.67 68.7705 41.5159 68.73 41.1528C68.7082 40.9786 68.6256 40.7664 68.444 40.5859C68.2581 40.4011 67.9728 40.2913 67.6649 40.3029C67.0254 40.2987 66.4092 40.8667 66.0679 41.5244C65.6918 42.1831 65.4369 43.0108 65.3972 43.8965C65.3254 45.6436 66.0593 47.3422 67.2261 47.7983C67.7951 48.0031 68.2924 47.8574 68.557 47.6737C68.8279 47.4795 68.8852 47.2895 68.8571 47.2726Z" fill="#F68260"/>
<path id="path248" d="M87.7429 33.422C88.0921 33.897 89.3103 33.6743 90.8934 33.6035C92.4726 33.4695 93.7091 33.5328 93.9967 33.0155C94.3237 32.4771 92.7952 31.242 90.7577 31.4183C88.7159 31.507 87.352 32.93 87.7429 33.422Z" fill="#17282F"/>
<path id="path250" d="M105.586 33.12C105.701 33.7197 106.727 34.0047 107.883 34.1208C109.043 34.219 110.099 34.1261 110.313 33.5571C110.529 33.006 109.558 32.077 108.066 31.9408C106.574 31.8015 105.464 32.5373 105.586 33.12Z" fill="#17282F"/>
<path id="path252" d="M113.264 23.281C113.264 23.281 106.526 26.731 97.7591 22.1018C92.0064 19.0625 85.2996 17.5793 83.8218 18.8028C82.3432 20.0264 82.0311 26.2992 76.3318 28.1309C76.3318 28.1309 76.7234 40.0981 72.2139 39.6716C67.7044 39.2451 70.5225 20.7083 70.5225 20.7083L81.5544 15.0076L93.5933 12.6007L104.937 14.2929L113.714 16.8361L113.264 23.281Z" fill="#17282F"/>
<path id="path254" d="M37.7627 92.535C49.5514 79.7064 70.3014 81.1062 70.3014 81.1062L97.2542 82.1196C97.2542 82.1196 107.505 83.3105 117.109 88.6205L117.77 88.8359L117.762 88.9816C125.307 93.3173 135.99 103.714 146.166 113.804L133.988 125.764L120.509 138.425C120.509 138.425 120.561 138.516 120.532 138.678C120.391 139.445 122.722 154.764 124.785 168.001C112.941 177.722 97.9983 183.386 81.845 183.054C71.5595 182.841 61.8549 180.218 53.1969 175.709L52.1886 163.473C51.27 152.38 50.5701 138.644 50.5701 138.644L37.7627 92.535" fill="#FFCC2A"/>
<path id="path256" d="M108.039 84.3566C108.056 84.3513 108.129 84.5318 108.25 84.8792C108.387 85.2877 108.555 85.7944 108.76 86.411C109.195 87.7432 109.79 89.6836 110.494 92.0916C111.904 96.9066 113.707 103.608 115.416 111.087C117.121 118.567 118.408 125.402 119.23 130.368C119.642 132.851 119.95 134.864 120.137 136.259C120.221 136.906 120.289 137.439 120.344 137.868C120.385 138.237 120.398 138.431 120.381 138.434C120.363 138.437 120.315 138.248 120.241 137.886C120.16 137.461 120.059 136.935 119.937 136.295C119.671 134.833 119.31 132.853 118.869 130.438C117.956 125.497 116.613 118.685 114.911 111.215C113.204 103.748 111.461 97.0417 110.142 92.2025C109.493 89.8419 108.96 87.9037 108.568 86.4754C108.399 85.8462 108.262 85.3299 108.152 84.913C108.061 84.554 108.022 84.3629 108.039 84.3566Z" fill="#17282F"/>
<path id="path258" d="M119.114 130.216C119.023 130.098 124.18 125.492 130.633 119.931C137.086 114.368 142.389 109.955 142.48 110.072C142.571 110.19 137.414 114.794 130.961 120.358C124.509 125.919 119.205 130.333 119.114 130.216Z" fill="#17282F"/>
<path id="path260" d="M46.6987 149.032L42.7722 146.871L47.8987 129.027L50.5703 138.644L46.6987 149.032Z" fill="#A7AAA9"/>
<path id="path262" d="M50.5703 138.644L47.8987 129.027L53.324 110.143C54.5482 116.823 50.5703 138.644 50.5703 138.644Z" fill="#DA314B"/>
<path id="path264" d="M106.556 84.2141C102.164 82.8671 98.6869 82.317 97.605 82.1661C97.6062 82.1471 97.607 82.127 97.6077 82.108C99.7715 82.4902 104.702 83.415 106.556 84.2141" fill="#A7AAA9"/>
<path id="path266" d="M97.6052 82.1661C97.376 82.1334 97.2544 82.1196 97.2544 82.1196L96.5073 82.0911L96.5658 81.9285C96.5658 81.9285 96.9645 81.9951 97.6079 82.108C97.6072 82.127 97.6064 82.1471 97.6052 82.1661Z" fill="#D8866F"/>
<path id="path268" d="M92.1505 94.9852C92.0621 94.9852 91.9759 94.9842 91.8906 94.981L96.5072 82.0911L97.2543 82.1196C97.2543 82.1196 97.3759 82.1333 97.6051 82.1661C98.687 82.317 102.164 82.867 106.556 84.2141C106.685 84.27 106.799 84.3249 106.896 84.3798C112.507 87.5099 98.7034 94.9852 92.1505 94.9852" fill="#FFCC2A"/>
<path id="path270" d="M68.6055 81.9286V72.2026C68.6055 72.2026 86.5584 77.0904 87.2101 88.4569C87.2101 88.4569 89.4934 75.8932 98.7431 75.2904L100.049 92.9637L89.2861 102.872H78.3759L69.7342 94.9853L68.6055 82.713" fill="#FFCC2A"/>
<path id="path272" d="M91.2502 142.976C91.2323 142.975 91.2229 142.789 91.221 142.434C91.2265 142.017 91.2323 141.505 91.2392 140.885C91.2724 139.541 91.3013 137.597 91.3122 135.194C91.3375 130.391 91.2011 123.753 90.6321 116.449C90.0542 109.144 89.1531 102.571 88.3788 97.8387C87.9937 95.4719 87.662 93.5579 87.4196 92.2394C87.3159 91.6292 87.2302 91.1256 87.1605 90.715C87.107 90.3655 87.0868 90.1797 87.1043 90.1755C87.1223 90.1713 87.1757 90.3487 87.263 90.6907C87.3584 91.0961 87.4758 91.5923 87.618 92.195C87.9212 93.502 88.3082 95.4064 88.7404 97.7691C89.6091 102.493 90.5705 109.078 91.1493 116.403C91.7206 123.728 91.799 130.389 91.6793 135.2C91.6213 137.606 91.5367 139.552 91.4416 140.895C91.3948 141.513 91.357 142.023 91.3258 142.439C91.2934 142.793 91.2678 142.977 91.2502 142.976Z" fill="#17282F"/>
<path id="path274" d="M86.3842 85.1853C86.3795 85.237 85.9794 85.0069 85.3133 85.2719C84.9875 85.4038 84.6274 85.6635 84.3234 86.0879C84.0136 86.507 83.7606 87.0666 83.4859 87.7031C82.3748 90.2294 81.0042 93.8725 80.0513 98.2156L79.9718 98.5756L79.6717 98.3835C78.5995 97.6983 77.4998 96.9562 76.3938 96.1623C74.2502 94.6189 72.288 93.0449 70.5751 91.4899C69.7146 90.7087 69.0088 89.767 68.6016 88.7641C68.1994 87.7601 68.04 86.7541 67.9936 85.8472C67.9184 84.0241 68.1959 82.5809 68.3752 81.5992C68.5701 80.6163 68.7158 80.0843 68.7482 80.0906C68.786 80.099 68.7068 80.6469 68.5744 81.6361C68.4566 82.6221 68.2407 84.0631 68.36 85.8219C68.4278 86.696 68.6028 87.6482 68.9948 88.5783C69.3947 89.5073 70.047 90.3571 70.8912 91.1098C72.5901 92.6152 74.5609 94.1776 76.6853 95.7073C77.7838 96.4959 78.8743 97.236 79.9356 97.9243L79.5563 98.0921C80.5434 93.7089 81.9905 90.052 83.1901 87.5511C83.4847 86.9261 83.7692 86.3508 84.1243 85.9159C84.4712 85.4746 84.8924 85.2054 85.2556 85.0945C86.009 84.8654 86.41 85.1811 86.3842 85.1853Z" fill="#17282F"/>
<path id="path276" d="M98.743 75.2904C98.7793 75.2893 98.828 75.8309 98.8911 76.8106C98.9612 77.8906 99.052 79.2819 99.1612 80.952C99.291 82.6971 99.4869 84.7694 99.8218 87.0539C99.9527 88.1824 100.322 89.406 100.035 90.7657C99.6697 92.1032 98.7114 93.1125 97.6923 93.9275C96.2601 95.0539 94.7522 95.9026 93.7358 97.1103L93.3391 97.5812L93.2998 96.953C93.0452 92.9256 91.7685 89.615 90.6246 87.4677C89.4734 85.3015 88.5233 84.1951 88.5884 84.1402C88.6086 84.1212 88.8608 84.382 89.2833 84.9024C89.7026 85.426 90.2782 86.2231 90.8971 87.2999C92.1337 89.4323 93.5055 92.7894 93.7974 96.9172L93.3621 96.7599C94.4522 95.4508 96.0013 94.5788 97.3789 93.4883C98.3606 92.7134 99.2321 91.7527 99.5419 90.6327C99.8007 89.4946 99.4791 88.2795 99.3483 87.1288C99.0373 84.8232 98.8774 82.7319 98.7944 80.9763C98.711 79.2207 98.6916 77.7998 98.6888 76.8169C98.6881 75.8351 98.7075 75.2925 98.743 75.2904Z" fill="#17282F"/>
<path id="path278" d="M156.528 77.7312C155.797 78.6412 129.367 116.036 129.367 116.036L133.089 118.267L160.21 81.3479L156.528 77.7312Z" fill="#17282F"/>
<path id="path280" d="M50.3515 107.297C50.3515 107.297 78.156 149.648 79.8314 150.479C83.1316 152.119 121.169 117.336 124.798 114.009C125.297 113.301 126.329 111.811 128.355 108.844C128.355 108.844 131.356 94.3117 134.559 95.4286C137.762 96.5445 132.803 102.813 134.89 108.334C136.976 113.855 146.528 100.686 146.911 99.5046L149.374 96.099C149.374 96.099 151.957 103.849 151.782 107.084C151.221 117.451 141.951 129.782 141.951 129.782C141.951 129.782 100.323 184.347 71.807 186.04C63.594 186.528 48.9989 161.869 39.2414 143.38C33.3487 132.214 36.2896 118.147 46.0557 110.611L50.3515 107.297Z" fill="#F8A58D"/>
<path id="path282" d="M147.102 108.927C147.026 108.877 147.929 107.218 148.913 105.106C149.904 102.996 150.601 101.23 150.686 101.264C150.762 101.293 150.19 103.126 149.193 105.252C148.2 107.382 147.171 108.974 147.102 108.927Z" fill="#F68260"/>
<path id="path284" d="M45.6448 86.6295C45.6448 86.6295 15.8014 97.8556 37.9891 150.96L72.441 128.958L67.5398 116.54L45.6448 86.6295Z" fill="#FFCC2A"/>
<path id="path286" d="M43.3579 87.5479C43.3579 87.5384 43.4377 87.531 43.5945 87.5257C43.7823 87.5236 44.0107 87.5205 44.2905 87.5162C44.902 87.5205 45.8085 87.6081 46.946 87.8889C48.0731 88.1993 49.4286 88.7303 50.8491 89.6424C52.272 90.5471 53.7495 91.8203 55.1856 93.4175C58.075 96.611 60.7722 101.067 63.2758 106.229C65.797 111.392 68.1501 117.271 70.5663 123.45C71.2901 125.3 72.0037 127.126 72.6787 128.853L72.768 129.08L72.5649 129.198C62.5966 134.949 53.919 140.34 47.7891 144.379C44.7216 146.393 42.2795 148.051 40.6049 149.205C39.7943 149.761 39.1524 150.201 38.6766 150.527C38.2346 150.825 37.9988 150.974 37.9891 150.96C37.9797 150.945 38.1972 150.768 38.622 150.442C39.0475 150.118 39.6743 149.637 40.5 149.04C42.1435 147.834 44.5591 146.127 47.6051 144.068C53.6922 139.944 62.3487 134.49 72.3174 128.719L72.2029 129.063C71.5262 127.335 70.8115 125.51 70.0863 123.66C67.6716 117.483 65.336 111.611 62.8495 106.46C60.381 101.309 57.7359 96.8696 54.9187 93.6846C53.5176 92.0905 52.0806 90.8184 50.6971 89.9042C49.3155 88.9826 47.9968 88.4336 46.8942 88.0958C44.6619 87.4867 43.3512 87.6324 43.3579 87.5479Z" fill="#17282F"/>
</g>
</g>
</g>
</svg>
